<svg id="Layer_2" data-name="Layer 2" xmlns="http://www.w3.org/2000/svg" viewBox="0 0 1200 1200"><defs><style>.cls-1{fill:#b00000;}.cls-2{fill:#e18d01;}.cls-3{fill:#9e0023;}.cls-4{fill:#013f00;}.cls-5{fill:#610014;}.cls-6{fill:#7c021c;}.cls-7{fill:#f5b3d8;}.cls-8{fill:#e182a2;}.cls-10,.cls-11,.cls-23,.cls-9{fill:none;stroke-miterlimit:10;}.cls-10,.cls-11,.cls-9{stroke:#610014;}.cls-9{stroke-width:5px;}.cls-10{stroke-width:5.41px;}.cls-11{stroke-width:5.97px;}.cls-12{fill:#fff;}.cls-13{fill:#f3b71b;}.cls-14{fill:#cd0500;}.cls-15{fill:#870000;}.cls-16{fill:#c41a00;}.cls-17{fill:#e08e07;}.cls-18{fill:#df8d05;}.cls-19{fill:#a20028;}.cls-20{fill:#d18300;}.cls-21{fill:#9b0722;}.cls-22{fill:#dd7300;}.cls-23{stroke:#d18300;}.cls-24{fill:#96012c;}.cls-25{fill:#950519;}.cls-26{fill:#b50003;}.cls-27{fill:#89010e;}.cls-28{fill:#481716;}.cls-29{fill:#a41a05;}.cls-30{fill:#e4b610;}.cls-31{fill:#422500;}.cls-32{fill:#eed13f;}.cls-33{fill:#710304;}.cls-34{fill:#850600;}.cls-35{fill:#e98929;}.cls-36{fill:#ffd05a;}</style></defs><path class="cls-1" d="M277.72,514.36c39-138,165.85-239.13,316.33-239.13S871.39,376.36,910.37,514.36"/><path class="cls-2" d="M277.73,514.36H445.44V310.67S320.74,365.09,277.73,514.36Z"/><path class="cls-3" d="M910.37,514.36H742.66V310.67S867.37,365.09,910.37,514.36Z"/><path class="cls-4" d="M277.72,718.72c39,138,165.85,239.13,316.33,239.13S871.39,856.72,910.37,718.72"/><path class="cls-2" d="M277.73,718.72H445.44v203.7S320.74,868,277.73,718.72Z"/><path class="cls-3" d="M910.37,718.72H742.66v203.7S867.37,868,910.37,718.72Z"/><g id="Layer_3" data-name="Layer 3"><path class="cls-5" d="M260.23,672.58V667.9c11.06-1.34,12.43-3,10-9.35-2.21-6.52-5.61-14.87-9.18-25.39H224.33c-2.72,7.52-5.27,14-7.65,20.88-3.75,10.85-1.37,12.19,12.59,13.86v4.68H190V667.9c10.72-1.34,13.44-2.51,19.4-17.54l35.22-87.67,5.45-1c10.72,28.56,22.46,60.13,33.18,89,5.44,14.53,7,15.86,19.05,17.2v4.68Zm-17-89c-5.45,14.36-11.23,29.56-16.33,42.76H258.7Z"/><path class="cls-5" d="M419.15,568.7c-11.4,1.5-14.29,3-20.42,18-4.59,11-28.07,67-36.41,87.68h-5.61c-10-26.88-24.68-66-34.37-90.68-4.77-12.36-7.66-14-18-15V564h43.22v4.68c-12.59,1.33-13.27,3.34-10.89,9.52,4.25,12.19,16.67,45.42,27.39,73.15,9-21.55,20.25-48.77,28.25-69.81C396,571.87,394,570.37,380,568.7V564h39.13Z"/><path class="cls-5" d="M497.92,561.68c29.1,0,55.13,21.88,55.13,55.12,0,35.9-24.84,58.28-56.15,58.28-32.67,0-56.49-24.38-56.49-55.78C440.41,589.41,462,561.68,497.92,561.68Zm-3.4,6.18c-19.06,0-36.41,15.7-36.41,46.93,0,31.07,17.35,54,41.52,54,20.58,0,36.07-15,36.07-47.27C535.7,586.4,516.81,567.86,494.52,567.86Z"/><path class="cls-5" d="M688.14,673.91c-2.21,0-4.08-.16-6.29-.33-12.42-.84-19.06-4-26.55-14.36-6.29-8.52-12.42-19-17.86-27.56-3.4-5.34-5.62-6.35-14.29-6.35h-6v26.22c0,14.2,1.87,15,15.48,16.37v4.68H587.24V667.9c14.13-1.5,15.32-2.17,15.32-16.37V584.9c0-14.2-1.87-14.7-15.32-16.2V564h43.39c12.42,0,20.76,1.5,27.23,5.68,7,4.34,11.57,11.86,11.57,22,0,14.37-9.36,23.39-21.95,28.73,3.06,5.18,10.38,16.37,15.48,23.88,6.3,8.85,9.53,13,13.44,17.2,4.6,4.85,8.51,6.68,12.42,7.69Zm-62.78-54.28c8.85,0,14.46-1.33,18.72-4.84,6.63-4.84,9.35-11.52,9.35-20.54,0-17.87-12.08-24.38-25.18-24.38-4.93,0-7.83.66-9,1.67-1.53,1.17-2,2.84-2,7.18v40.91Z"/><path class="cls-5" d="M769.13,561.68c29.09,0,55.13,21.88,55.13,55.12,0,35.9-24.85,58.28-56.15,58.28-32.67,0-56.49-24.38-56.49-55.78C711.62,589.41,733.23,561.68,769.13,561.68Zm-3.41,6.18c-19.05,0-36.41,15.7-36.41,46.93,0,31.07,17.36,54,41.52,54,20.59,0,36.07-15,36.07-47.27C806.9,586.4,788,567.86,765.72,567.86Z"/><path class="cls-5" d="M976,568.7c-10.89,1.17-14.46,2.84-15,10.52-.17,5.34-.51,12.36-.51,27.89v67h-6.47l-72.82-87.35v41.76c0,15,.51,22.54.85,27.39.34,8.51,4.59,11,16.84,12v4.68H857.6V667.9c10.55-.84,14.63-3.34,15.31-11.52.51-5.35.85-12.86.85-28.06V585.73c0-4.67-.34-7.35-3.4-11-3.24-4.18-6.81-5.18-15.15-6V564h25.53l72.14,84V607.11c0-15.53-.34-22.71-.85-27.72-.51-7.52-4.42-9.86-18-10.69V564h42Z"/></g><path class="cls-6" d="M141,443.86s-2.18,1.58-2.82,1.45-.62-1.51,1-5.27,4.13-11.84,2.89-16.79-3.84-1.75-3.3-5.67-3.69-3.07-5.58-.55-2.43,4.8-4.37,5.79-3.6,4.3-4,8-1.56,5,.72,9.17,4.85,8.26,8.79,9.08,6.23.67,4.56,4-2,2.48-5.31,1.1-7.79-.23-13,1.61-11,6.17-12.56,10.79-.12,7.56-.51,11.13,1.37,4.32,4.11,3.39,6.32-2.19,9-3.29,4.73-2.72,5.58-8,2-9,5.14-9.61,4.13-.48,4.35.58S145.91,445.94,141,443.86Z"/><path class="cls-6" d="M132.47,450.26s-12.29-11.44-11.28-15.42,4.18-9.56,1.07-8.1-4,5.46-6.85,6.43-5.23,2.58-2.69,4.77,16,9.65,13,10.2-10.47-.45-13-.49-6.21.62-5.91,2.55,1.53,3.27.86,5.2-3.22,6.68-1.22,6.55,2.83-4.91,6.3-7.18S126.06,452,128.41,452,135,452.73,132.47,450.26Z"/><path class="cls-7" d="M137,439.43s-2.25-1.63-1.84-5.89,2-5.27.25-6.82,0-5.66-1.66-4.29-3,2.89-2.47,5.88,1.7,4.87,1.82,6.72,1.7,4,2.68,5S138.47,441.64,137,439.43Z"/><path class="cls-8" d="M128.84,458.8a69.56,69.56,0,0,0-8,7c-2.51,2.83-3.89,3.91-6.33,8.42s-2,.25.32-4.94,5.35-8,8.64-9.76S130.1,457.84,128.84,458.8Z"/><path class="cls-6" d="M180.92,361.87s-2.4,1.21-3,1-.37-1.58,1.78-5.05,5.94-11,5.49-16.12-3.51-2.33-2.36-6.13-3.16-3.61-5.43-1.41-3.15,4.35-5.22,5-4.24,3.68-5.25,7.26-2.34,4.73-.73,9.17,3.48,8.91,7.25,10.35,6,1.64,3.87,4.65-2.37,2.14-5.41.25-7.67-1.45-13.09-.46-11.86,4.36-14.1,8.69-1.31,7.44-2.26,10.91.68,4.48,3.53,4,6.59-1.17,9.4-1.83,5.11-1.94,6.78-7.06,3.37-8.57,6.59-8.68,4.15.17,4.2,1.26S185.48,364.69,180.92,361.87Z"/><path class="cls-6" d="M171.52,366.85s-10.33-13.24-8.71-17,5.63-8.79,2.33-7.84-4.76,4.77-7.77,5.28-5.58,1.72-3.41,4.28,14.3,12.06,11.26,12.12-10.27-2.09-12.71-2.51-6.23-.37-6.24,1.57,1,3.48,0,5.28-4.23,6.09-2.24,6.28,3.57-4.4,7.36-6.11,13.5-.64,15.81-.25S173.62,369.68,171.52,366.85Z"/><path class="cls-7" d="M177.71,356.87s-2-2-.89-6.11,2.76-4.9,1.32-6.69.92-5.59-1-4.51-3.43,2.38-3.37,5.43.92,5.07.75,6.92,1,4.25,1.85,5.36S178.8,359.28,177.71,356.87Z"/><path class="cls-8" d="M166.59,374.71a71,71,0,0,0-9.05,5.6c-2.92,2.4-4.45,3.25-7.57,7.32s-2.06-.07,1.09-4.83,6.54-7.06,10.07-8.27S168,374,166.59,374.71Z"/><path class="cls-6" d="M236.52,289s-2.62.6-3.16.23,0-1.62,2.94-4.48,8.41-9.29,9.19-14.34-2.85-3.1-.83-6.51-2.2-4.26-4.93-2.67-4.1,3.47-6.27,3.63-5,2.56-6.84,5.79-3.4,4-2.9,8.73,1.25,9.49,4.56,11.78,5.48,3,2.65,5.45-2.81,1.5-5.31-1.06-7.1-3.24-12.6-3.57-12.57,1.39-15.77,5.06-3.05,6.91-4.81,10.05-.41,4.51,2.48,4.72,6.67.44,9.56.47,5.43-.66,8.28-5.23,5.32-7.52,8.47-6.85,4,1.16,3.78,2.22S240.27,292.86,236.52,289Z"/><path class="cls-6" d="M226.2,291.62s-6.86-15.33-4.39-18.6,7.58-7.18,4.14-7-5.76,3.49-8.81,3.26-5.82.33-4.34,3.34,11,15.13,8,14.46-9.47-4.49-11.74-5.48-6-1.85-6.43,0,.13,3.61-1.24,5.13-5.56,4.9-3.67,5.56,4.51-3.42,8.6-4.17,13.26,2.61,15.42,3.54S227.56,294.87,226.2,291.62Z"/><path class="cls-7" d="M234.6,283.41s-1.44-2.39.6-6.15,3.85-4.09,2.88-6.18,2.23-5.21.15-4.6-3.9,1.49-4.57,4.46-.33,5.14-.93,6.9,0,4.37.52,5.64S235.09,286,234.6,283.41Z"/><path class="cls-8" d="M219.54,298.07a70.39,70.39,0,0,0-10.13,3.28c-3.41,1.62-5.1,2.09-9.11,5.29s-2-.56,2.22-4.43,8-5.29,11.76-5.62S221.07,297.67,219.54,298.07Z"/><path class="cls-6" d="M306.06,228.49s-2.69.16-3.16-.29.29-1.6,3.64-3.93,9.83-7.78,11.44-12.63-2.31-3.53.25-6.55-1.47-4.58-4.42-3.46-4.62,2.75-6.79,2.55-5.34,1.7-7.69,4.58-4,3.42-4.31,8.13-.33,9.56,2.56,12.37,4.89,3.91,1.71,5.81-3,1-5.07-1.92-6.46-4.36-11.84-5.6-12.62-.7-16.38,2.38-4.16,6.32-6.4,9.12-1.15,4.38,1.66,5.07,6.51,1.53,9.35,2,5.46.25,9-3.79,6.49-6.54,9.49-5.36,3.74,1.8,3.36,2.82S309.12,232.89,306.06,228.49Z"/><path class="cls-6" d="M295.45,229.34s-4.24-16.25-1.26-19.07,8.66-5.83,5.25-6.26-6.26,2.49-9.23,1.76-5.8-.63-4.83,2.58,8.36,16.74,5.54,15.59-8.6-6-10.67-7.35-5.58-2.8-6.36-1-.46,3.59-2.06,4.86-6.3,3.92-4.54,4.87,5-2.62,9.17-2.68,12.65,4.76,14.62,6S296.26,232.77,295.45,229.34Z"/><path class="cls-7" d="M305.09,222.63s-1-2.59,1.61-6,4.47-3.4,3.86-5.62,3.06-4.77.9-4.52-4.09.83-5.24,3.65-1.17,5-2.06,6.65-.73,4.31-.42,5.65S305.14,225.28,305.09,222.63Z"/><path class="cls-8" d="M287.81,234.6a70.85,70.85,0,0,0-10.53,1.56c-3.63,1-5.37,1.22-9.85,3.72s-1.86-.89,2.92-4,8.8-3.89,12.52-3.61S289.39,234.47,287.81,234.6Z"/><path class="cls-6" d="M380.61,183.39s-2.68-.26-3.07-.78.52-1.53,4.2-3.32,10.91-6.17,13.24-10.72-1.73-3.84,1.26-6.44-.75-4.74-3.84-4.09-5,2-7.09,1.47-5.55.86-8.32,3.34-4.49,2.76-5.5,7.37-1.8,9.4.62,12.62,4.23,4.61.79,6-3.14.53-4.71-2.68-5.71-5.31-10.83-7.36-12.36-2.64-16.55-.17-5.08,5.6-7.73,8-1.82,4.15.86,5.26,6.19,2.52,8.92,3.46,5.36,1.08,9.51-2.36,7.42-5.46,10.2-3.83,3.42,2.35,2.89,3.3S383,188.21,380.61,183.39Z"/><path class="cls-6" d="M370,182.59s-1.69-16.7,1.69-19,9.45-4.43,6.15-5.38-6.57,1.5-9.39.32-5.63-1.52-5.17,1.81,5.68,17.82,3.07,16.25-7.57-7.24-9.41-8.9-5.08-3.64-6.12-2-1,3.47-2.79,4.48-6.82,2.9-5.24,4.12,5.36-1.83,9.48-1.25,11.76,6.66,13.52,8.22S370.26,186.11,370,182.59Z"/><path class="cls-7" d="M380.56,177.45s-.62-2.72,2.5-5.64,4.95-2.68,4.68-5,3.76-4.24,1.59-4.32-4.17.19-5.74,2.8-1.93,4.78-3.06,6.25-1.38,4.15-1.28,5.52S380.2,180.07,380.56,177.45Z"/><path class="cls-8" d="M361.64,186.62a70.13,70.13,0,0,0-10.64-.09c-3.75.48-5.5.38-10.31,2.16s-1.7-1.16,3.5-3.5,9.29-2.49,12.93-1.64S363.22,186.73,361.64,186.62Z"/><path class="cls-6" d="M467,152s-2.6-.71-2.9-1.28.78-1.43,4.71-2.56,11.8-4.22,14.87-8.3-1.05-4.08,2.35-6.12.07-4.81-3.09-4.69-5.25,1.12-7.24.23-5.61-.1-8.76,1.88-4.9,1.95-6.68,6.32-3.38,8.95-1.55,12.54,3.39,5.26-.24,6.05-3.19,0-4.19-3.44-4.72-6.21-9.41-9.1-11.73-4.72-16.28-3-6,4.65-9,6.59-2.5,3.78-.05,5.33,5.67,3.54,8.2,4.94,5.09,2,9.77-.7,8.24-4.12,10.7-2,3,2.9,2.29,3.75S468.44,157.11,467,152Z"/><path class="cls-6" d="M456.63,149.37s1.19-16.75,4.91-18.46,10.07-2.76,7-4.25-6.73.35-9.3-1.3-5.29-2.45-5.41.9,2.55,18.53.25,16.54-6.23-8.43-7.76-10.38-4.37-4.44-5.68-3-1.59,3.25-3.52,3.94-7.21,1.69-5.86,3.16,5.59-.88,9.55.39,10.46,8.57,11.92,10.41S456.29,152.88,456.63,149.37Z"/><path class="cls-7" d="M467.91,146.1s-.14-2.78,3.43-5.13,5.33-1.79,5.46-4.09,4.42-3.54,2.3-4-4.14-.53-6.13,1.77-2.72,4.38-4.08,5.64-2.08,3.85-2.21,5.22S467.1,148.63,467.91,146.1Z"/><path class="cls-8" d="M447.7,151.91a69.53,69.53,0,0,0-10.47-1.9c-3.77-.18-5.48-.57-10.53.36s-1.48-1.43,4.05-2.85,9.58-.86,13,.59S449.24,152.28,447.7,151.91Z"/><path class="cls-6" d="M554.58,138.16s-2.39-1.25-2.56-1.87,1.07-1.23,5.14-1.5,12.43-1.61,16.3-4.94-.15-4.21,3.6-5.49,1.09-4.68-2-5.24-5.37,0-7.12-1.31-5.46-1.29-9,0-5.21.86-7.88,4.75-5.21,8-4.18,11.93,2.19,5.86-1.52,5.86-3.12-.69-3.36-4.25-3.29-7.08-7.26-10.9-10.46-7.1-15.27-6.39-6.82,3.27-10.19,4.52-3.24,3.16-1.18,5.2,4.79,4.67,7,6.57,4.55,3,9.69,1.39,8.93-2.26,10.89.29,2.28,3.47,1.43,4.15S554.94,143.51,554.58,138.16Z"/><path class="cls-6" d="M545,133.43s4.73-16.11,8.74-17,10.42-.55,7.72-2.67-6.65-1.09-8.82-3.25-4.64-3.52-5.47-.27-1.45,18.65-3.28,16.22-4.28-9.57-5.36-11.8-3.34-5.27-4.92-4.14-2.24,2.84-4.27,3.1-7.42.12-6.4,1.84,5.65.33,9.24,2.42,8.4,10.59,9.43,12.7S544,136.79,545,133.43Z"/><path class="cls-7" d="M556.76,132.64s.46-2.75,4.45-4.28,5.59-.62,6.2-2.84,5.08-2.51,3.1-3.4-3.93-1.4-6.37.43-3.59,3.69-5.19,4.63-2.84,3.33-3.27,4.64S555.44,134.93,556.76,132.64Z"/><path class="cls-8" d="M535.79,134a70.47,70.47,0,0,0-9.83-4.08c-3.65-1-5.24-1.73-10.37-1.89s-1.14-1.72,4.56-1.93,9.55,1.2,12.6,3.36S537.21,134.71,535.79,134Z"/><path class="cls-6" d="M650.5,139.76s-2.08-1.71-2.12-2.36,1.3-1,5.35-.4,12.49,1,17-1.44.72-4.16,4.66-4.63,2-4.35-.89-5.54-5.25-1.14-6.7-2.76-5.07-2.4-8.75-1.9-5.27-.23-8.7,3-6.76,6.77-6.56,10.8.92,6.19-2.71,5.41-2.9-1.31-2.4-4.85-1.75-7.6-4.84-12.17-8.75-9.12-13.61-9.42-7.35,1.78-10.9,2.31-3.83,2.42-2.24,4.84,3.72,5.56,5.45,7.87,3.83,3.9,9.19,3.37,9.21-.36,10.6,2.55,1.51,3.87.54,4.35S649.74,145.07,650.5,139.76Z"/><path class="cls-6" d="M642.15,133.16s8-14.78,12.08-14.81,10.31,1.63,8.11-1-6.28-2.44-8-5-3.82-4.42-5.3-1.4-5.29,17.94-6.58,15.18-2.2-10.25-2.8-12.66-2.16-5.85-4-5.07-2.78,2.31-4.82,2.15-7.27-1.43-6.64.47,5.46,1.49,8.54,4.28,6,12.11,6.59,14.38S640.4,136.22,642.15,133.16Z"/><path class="cls-7" d="M653.78,134.82s1-2.6,5.24-3.27,5.59.56,6.66-1.48,5.49-1.41,3.74-2.69-3.56-2.19-6.32-.9-4.28,2.87-6,3.45-3.48,2.67-4.16,3.86S652,136.79,653.78,134.82Z"/><path class="cls-8" d="M633,131.8a71.15,71.15,0,0,0-8.77-6c-3.37-1.71-4.76-2.77-9.74-4s-.76-1.92,4.86-.94,9.09,3.15,11.62,5.9S634.23,132.78,633,131.8Z"/><path class="cls-6" d="M744.7,160s-1.71-2.08-1.62-2.73,1.47-.7,5.32.64,12.07,3.4,16.93,1.85,1.51-3.93,5.47-3.63,2.84-3.88.2-5.61-4.94-2.13-6-4-4.52-3.34-8.23-3.55-5.13-1.25-9.11,1.28-7.94,5.34-8.52,9.33-.29,6.26-3.7,4.8-2.6-1.86-1.42-5.23-.26-7.8-2.41-12.88-6.83-10.63-11.54-11.87-7.55.34-11.14.17-4.23,1.64-3.13,4.32,2.57,6.17,3.83,8.77,3,4.57,8.37,5.09,9.1,1.41,9.91,4.53.73,4.09-.31,4.38S742.93,165,744.7,160Z"/><path class="cls-6" d="M737.79,151.89s10.67-13,14.7-12.21,9.81,3.59,8.15.58-5.69-3.61-6.84-6.44-2.89-5.07-4.92-2.4-8.65,16.59-9.38,13.63-.19-10.48-.31-13-1-6.17-2.9-5.75-3.17,1.73-5.14,1.18-6.87-2.8-6.61-.82,5.06,2.52,7.55,5.86,3.57,13,3.7,15.37S735.48,154.55,737.79,151.89Z"/><path class="cls-7" d="M748.88,155.76s1.49-2.35,5.77-2.2,5.38,1.63,6.82-.17,5.65-.32,4.18-1.92-3.07-2.83-6-2.1-4.76,2-6.6,2.23-3.92,1.94-4.82,3S746.76,157.35,748.88,155.76Z"/><path class="cls-8" d="M729,148.79a69.68,69.68,0,0,0-7.43-7.61c-3-2.33-4.14-3.64-8.8-5.8s-.37-2,5,0,8.31,4.85,10.26,8S730.08,150,729,148.79Z"/><path class="cls-6" d="M836.16,198.11s-1.27-2.37-1.06-3,1.57-.42,5.1,1.64,11.19,5.65,16.26,5.06,2.24-3.58,6.06-2.53,3.53-3.26,1.27-5.46-4.44-3-5.17-5.09-3.79-4.13-7.39-5.05-4.8-2.21-9.19-.48-8.82,3.72-10.15,7.52-1.48,6.09-4.55,4-2.19-2.31-.39-5.4,1.24-7.7.1-13.1-4.68-11.74-9.06-13.86-7.48-1.11-11-2-4.46.8-3.9,3.64,1.35,6.55,2.09,9.34,2.07,5.06,7.24,6.59,8.66,3.14,8.86,6.35-.06,4.15-1.15,4.24S833.46,202.75,836.16,198.11Z"/><path class="cls-6" d="M830.93,188.85s13-10.68,16.76-9.17,8.94,5.4,7.89,2.13-4.9-4.64-5.48-7.64-1.87-5.52-4.38-3.29-11.66,14.63-11.81,11.59,1.82-10.33,2.18-12.78.2-6.24-1.75-6.19-3.45,1.09-5.28.17-6.2-4.06-6.33-2.07,4.5,3.45,6.3,7.2,1,13.47.68,15.8S828.15,191,830.93,188.85Z"/><path class="cls-7" d="M841.07,194.77s1.92-2,6.08-1.05,5,2.62,6.73,1.13,5.61.77,4.48-1.08-2.48-3.36-5.52-3.22-5,1-6.89.93-4.23,1.16-5.31,2S838.69,195.93,841.07,194.77Z"/><path class="cls-8" d="M822.94,184.14a71.45,71.45,0,0,0-5.85-8.9c-2.47-2.85-3.37-4.36-7.52-7.37s0-2.06,4.86,1,7.23,6.35,8.54,9.84S823.73,185.51,822.94,184.14Z"/><path class="cls-6" d="M909.91,249.11s-.89-2.54-.58-3.12,1.61-.16,4.77,2.43,10.17,7.33,15.27,7.55,2.77-3.18,6.38-1.55,4-2.66,2.11-5.2-3.9-3.69-4.3-5.83-3.1-4.68-6.51-6.15-4.39-2.93-9-1.92-9.29,2.29-11.2,5.84-2.42,5.78-5.12,3.23-1.81-2.63.46-5.4,2.43-7.41,2.16-12.91-2.78-12.33-6.77-15.11-7.21-2.28-10.53-3.67-4.53.09-4.42,3,.3,6.69.59,9.56,1.26,5.32,6.12,7.65,8.06,4.45,7.75,7.66-.71,4.09-1.8,4S906.51,253.26,909.91,249.11Z"/><path class="cls-6" d="M906.19,239.14s14.47-8.52,18-6.42,8,6.73,7.46,3.34-4.11-5.35-4.21-8.4-1-5.75-3.81-3.94-13.82,12.61-13.48,9.58,3.41-9.91,4.15-12.27,1.18-6.13-.75-6.39-3.58.54-5.24-.66-5.49-5-5.93-3,3.9,4.11,5.09,8.09-1.12,13.47-1.81,15.72S903.11,240.85,906.19,239.14Z"/><path class="cls-7" d="M915.28,246.58s2.21-1.7,6.17-.08,4.5,3.37,6.47,2.17,5.42,1.64,4.59-.36-1.91-3.71-4.94-4.05-5.15.25-7-.16-4.35.48-5.55,1.14S912.75,247.35,915.28,246.58Z"/><path class="cls-8" d="M899,233.23a70.34,70.34,0,0,0-4.37-9.7c-2-3.21-2.64-4.84-6.27-8.47s.34-2,4.65,1.71,6.14,7.41,6.89,11.07S899.61,234.71,899,233.23Z"/><path class="cls-6" d="M972.47,311.91s-.52-2.64-.14-3.17,1.63.07,4.39,3.09,9,8.71,14,9.65,3.19-2.75,6.53-.61,4.34-2.07,2.83-4.85-3.33-4.21-3.42-6.38-2.4-5.08-5.56-7-3.93-3.52-8.63-3.18-9.53.94-11.93,4.18-3.22,5.37-5.53,2.46-1.41-2.86,1.23-5.27,3.47-7,4-12.48-1-12.6-4.54-15.92-6.81-3.28-9.89-5.14-4.49-.56-4.8,2.32-.65,6.66-.78,9.55.48,5.44,5,8.44,7.34,5.56,6.57,8.69-1.29,3.95-2.35,3.71S968.51,315.53,972.47,311.91Z"/><path class="cls-6" d="M970.21,301.51s15.54-6.36,18.73-3.78,6.94,7.81,6.91,4.37-3.3-5.88-3-8.91-.15-5.83-3.2-4.45S974.2,299.25,975,296.3s4.8-9.32,5.87-11.55,2-5.9.17-6.44-3.62,0-5.09-1.4-4.72-5.72-5.44-3.85,3.27,4.62,3.89,8.74-3,13.16-4,15.29S966.92,302.76,970.21,301.51Z"/><path class="cls-7" d="M978.14,310.17s2.44-1.36,6.12.8,4,4,6.09,3.09,5.14,2.39,4.6.29-1.37-4-4.31-4.71-5.13-.49-6.87-1.16-4.37-.15-5.66.34S975.53,310.57,978.14,310.17Z"/><path class="cls-8" d="M964,294.64A71,71,0,0,0,961,284.41c-1.52-3.46-1.92-5.16-5-9.28s.63-2,4.35,2.37,5,8.21,5.24,11.93S964.33,296.19,964,294.64Z"/><path class="cls-6" d="M1023,386.7s-.1-2.69.36-3.15,1.59.33,3.85,3.74,7.53,10,12.34,11.73,3.59-2.21,6.55.42,4.61-1.36,3.56-4.34-2.64-4.69-2.38-6.84-1.57-5.39-4.4-7.81-3.32-4.1-8-4.5-9.55-.57-12.43,2.25-4,4.8-5.85,1.57-.94-3,2-5,4.52-6.35,5.89-11.69,1-12.6-2-16.44-6.21-4.31-9-6.62-4.35-1.26-5.11,1.53-1.69,6.48-2.27,9.31-.37,5.45,3.58,9.11,6.38,6.65,5.13,9.62-1.89,3.7-2.9,3.29S1018.54,389.66,1023,386.7Z"/><path class="cls-6" d="M1022.42,376.08s16.35-3.85,19.09-.8,5.63,8.8,6.14,5.4-2.34-6.32-1.54-9.27.77-5.78-2.46-4.89-16.94,8-15.72,5.15,6.2-8.45,7.6-10.49,3-5.5,1.18-6.32-3.58-.55-4.81-2.18-3.76-6.39-4.76-4.66,2.5,5.08,2.46,9.24-5.06,12.52-6.38,14.47S1019,376.8,1022.42,376.08Z"/><path class="cls-7" d="M1028.9,385.88s2.61-1,5.92,1.75,3.29,4.55,5.52,4,4.7,3.17,4.5,1-.73-4.11-3.52-5.33-5-1.29-6.6-2.22-4.29-.84-5.64-.56S1026.25,385.86,1028.9,385.88Z"/><path class="cls-8" d="M1017.34,368.31a69.39,69.39,0,0,0-1.3-10.56c-.95-3.65-1.08-5.4-3.47-9.94s.93-1.84,3.93,3,3.67,8.9,3.3,12.61S1017.44,369.9,1017.34,368.31Z"/><path class="cls-6" d="M1055.13,463.4s.53-2.64,1.08-3,1.47.69,2.88,4.52,5,11.49,9.29,14.28,4-1.33,6.27,1.92,4.8-.26,4.47-3.4-1.48-5.17-.73-7.21-.28-5.6-2.47-8.61-2.28-4.76-6.76-6.24-9.16-2.76-12.62-.68-5,3.74-6,.17-.21-3.18,3.14-4.41,5.88-5.13,8.44-10,3.9-12,1.88-16.45-5-5.63-7.19-8.52-3.94-2.23-5.32.31-3.15,5.91-4.36,8.53-1.63,5.21,1.36,9.69,4.67,7.95,2.77,10.54-2.7,3.16-3.59,2.54S1050.09,465.24,1055.13,463.4Z"/><path class="cls-6" d="M1057,452.93s16.79,0,18.75,3.64,3.44,9.86,4.72,6.67-.81-6.69.66-9.37,2.08-5.44-1.27-5.33-18.31,3.81-16.49,1.38,8-6.79,9.83-8.45,4.14-4.67,2.61-5.88-3.35-1.36-4.17-3.23-2.18-7.09-3.55-5.64,1.25,5.52.25,9.56-7.83,11-9.56,12.6S1053.48,452.83,1057,452.93Z"/><path class="cls-7" d="M1061,464s2.77-.33,5.35,3.07,2.15,5.2,4.45,5.17,3.84,4.17,4.14,2,.24-4.16-2.19-6-4.55-2.42-5.9-3.69-4-1.8-5.36-1.85S1058.46,463.33,1061,464Z"/><path class="cls-8" d="M1053.87,444.2a70.6,70.6,0,0,0,1.18-10.58c-.09-3.78.19-5.51-1.08-10.48s1.32-1.57,3.12,3.84,1.51,9.51.29,13S1053.6,445.76,1053.87,444.2Z"/><path class="cls-6" d="M574,205.31s2.3,1.41,2.42,2.05-1.14,1.14-5.23,1.14-12.51.77-16.6,3.83-.12,4.22-3.95,5.24-1.41,4.59,1.66,5.36,5.36.38,7,1.79,5.36,1.66,8.93.64,5.26-.52,8.18-4.22,5.74-7.66,5-11.61-1.78-6,1.92-5.75,3.06.89,3.06,4.47,2.81,7.28,6.51,11.36,10,7.79,14.81,7.4,7-2.8,10.47-3.82,3.45-2.94,1.53-5.11-4.47-5-6.51-7-4.34-3.32-9.57-2.05-9.07,1.66-10.86-1-2-3.61-1.14-4.23S574,200,574,205.31Z"/><path class="cls-6" d="M583.15,210.67s-5.8,15.76-9.86,16.37-10.44-.15-7.88,2.15S572,230.72,574,233s4.4,3.83,5.45.64,2.7-18.51,4.36-16,3.63,9.83,4.56,12.12,3,5.49,4.63,4.47,2.43-2.68,4.47-2.81,7.4.39,6.51-1.4-5.62-.71-9.07-3-7.65-11.13-8.55-13.3S584.45,207.4,583.15,210.67Z"/><path class="cls-7" d="M571.41,210.67s-.64,2.72-4.73,4-5.62.24-6.38,2.41-5.24,2.17-3.32,3.19,3.83,1.66,6.38,0,3.83-3.45,5.49-4.28,3.07-3.13,3.58-4.4S572.88,208.47,571.41,210.67Z"/><path class="cls-8" d="M592.43,210.72a70.09,70.09,0,0,0,9.53,4.74c3.57,1.21,5.1,2.07,10.21,2.58s1,1.78-4.68,1.61-9.45-1.84-12.34-4.19S591.05,209.93,592.43,210.72Z"/><path class="cls-6" d="M452,230.63s2.59.76,2.88,1.34-.81,1.41-4.75,2.48-11.88,4-15,8,1,4.1-2.45,6.08-.15,4.81,3,4.75,5.28-1,7.25-.12,5.61.2,8.79-1.72,4.94-1.87,6.79-6.2,3.53-8.9,1.76-12.52-3.29-5.32.35-6,3.19.06,4.12,3.51,4.62,6.29,9.26,9.26,11.65,4.91,16.23,3.27,6-4.55,9.1-6.43,2.56-3.74.14-5.33-5.61-3.64-8.12-5.08-5.06-2.06-9.77.54-8.32,4-10.74,1.85-2.92-3-2.22-3.78S450.56,225.46,452,230.63Z"/><path class="cls-6" d="M462.24,233.4s-1.48,16.73-5.24,18.38-10.11,2.58-7.05,4.13,6.74-.24,9.29,1.45,5.24,2.55,5.41-.8-2.23-18.58,0-16.55,6.08,8.54,7.58,10.52,4.3,4.52,5.63,3.1,1.64-3.23,3.58-3.88,7.25-1.57,5.92-3.06-5.61.78-9.55-.56-10.3-8.74-11.73-10.6S462.64,229.9,462.24,233.4Z"/><path class="cls-7" d="M450.9,236.48s.09,2.78-3.52,5.07-5.36,1.7-5.53,4-4.48,3.47-2.37,4,4.13.6,6.16-1.67,2.8-4.33,4.18-5.56,2.14-3.82,2.3-5.19S451.75,234,450.9,236.48Z"/><path class="cls-8" d="M471.2,231a70.22,70.22,0,0,0,10.44,2.08c3.77.24,5.47.66,10.53-.18s1.46,1.45-4.09,2.78-9.6.7-13-.82S469.67,230.62,471.2,231Z"/><path class="cls-6" d="M333,294.28s2.69-.11,3.15.35-.31,1.59-3.71,3.87-10,7.6-11.65,12.42,2.24,3.57-.37,6.55,1.4,4.6,4.37,3.53,4.66-2.67,6.82-2.43,5.38-1.61,7.78-4.44,4.08-3.35,4.45-8.06.49-9.55-2.35-12.42-4.82-4-1.61-5.83,3.05-1,5,2,6.38,4.48,11.73,5.81,12.61.92,16.43-2.1,4.26-6.24,6.56-9,1.22-4.36-1.57-5.09-6.49-1.65-9.32-2.21-5.46-.34-9.09,3.64-6.61,6.43-9.58,5.19-3.71-1.86-3.32-2.87S330,289.83,333,294.28Z"/><path class="cls-6" d="M343.6,293.61s4,16.32.93,19.09-8.76,5.68-5.36,6.17,6.31-2.38,9.26-1.6,5.79.73,4.88-2.5-8.07-16.88-5.27-15.68,8.49,6.14,10.54,7.53,5.53,2.91,6.34,1.13.52-3.57,2.14-4.82,6.37-3.8,4.63-4.79-5.06,2.54-9.22,2.53-12.56-5-14.51-6.29S342.86,290.17,343.6,293.61Z"/><path class="cls-7" d="M333.84,300.16s1,2.61-1.7,5.93-4.54,3.32-4,5.55-3.14,4.72-1,4.5,4.1-.75,5.3-3.55,1.26-5,2.17-6.61.81-4.31.52-5.65S333.84,297.51,333.84,300.16Z"/><path class="cls-8" d="M351.33,288.48a69.9,69.9,0,0,0,10.55-1.37c3.65-1,5.4-1.13,9.92-3.55s1.85.92-3,3.95-8.87,3.74-12.58,3.39S349.75,288.59,351.33,288.48Z"/><path class="cls-6" d="M252.08,382.24s2.56-.83,3.13-.51.13,1.62-2.53,4.72-7.55,10-7.88,15.1,3.12,2.84,1.41,6.41,2.58,4.06,5.15,2.23,3.78-3.83,5.92-4.18,4.75-3,6.3-6.37,3-4.33,2.11-9-2.09-9.34-5.59-11.33-5.73-2.54-3.13-5.19,2.68-1.74,5.39.58,7.36,2.6,12.87,2.44,12.39-2.51,15.25-6.44,2.43-7.16,3.89-10.45,0-4.53-2.88-4.48-6.69.16-9.57.38-5.34,1.14-7.77,5.95-4.63,8-7.83,7.58-4.08-.8-4-1.88S248,378.76,252.08,382.24Z"/><path class="cls-6" d="M262.13,378.74s8.2,14.65,6,18.13-6.9,7.84-3.5,7.39,5.43-4,8.49-4,5.77-.86,4-3.72-12.31-14.09-9.29-13.69,9.83,3.63,12.18,4.42,6.1,1.31,6.41-.62-.46-3.58.77-5.22,5.1-5.38,3.16-5.86-4.19,3.81-8.2,4.92-13.44-1.42-15.67-2.15S260.49,375.62,262.13,378.74Z"/><path class="cls-7" d="M254.5,387.67s1.64,2.25-.05,6.17-3.47,4.42-2.32,6.42-1.75,5.38.27,4.59,3.75-1.83,4.14-4.85-.13-5.15.32-6.95-.38-4.36-1-5.58S253.78,385.12,254.5,387.67Z"/><path class="cls-8" d="M268.19,371.72a70.78,70.78,0,0,0,9.8-4.16c3.25-1.93,4.89-2.54,8.6-6.09s2,.39-1.82,4.61-7.53,6-11.21,6.65S266.7,372.25,268.19,371.72Z"/><path class="cls-6" d="M203.47,490.15s2.07-1.72,2.72-1.64.71,1.46-.61,5.33-3.31,12.09-1.73,16.94,3.94,1.48,3.67,5.44,3.9,2.81,5.61.16,2.1-4.95,4-6.07,3.31-4.54,3.49-8.25,1.22-5.14-1.34-9.1-5.4-7.9-9.39-8.46-6.26-.24-4.82-3.66,1.83-2.62,5.22-1.46,7.79-.31,12.85-2.49,10.59-6.91,11.79-11.63-.39-7.55-.24-11.14-1.67-4.21-4.34-3.1-6.16,2.62-8.75,3.89-4.54,3-5,8.41-1.36,9.11-4.47,9.94-4.09.76-4.38-.28S198.39,488.42,203.47,490.15Z"/><path class="cls-6" d="M211.51,483.18s13,10.58,12.31,14.62-3.52,9.83-.52,8.15,3.57-5.71,6.4-6.88,5-2.93,2.36-4.94-16.65-8.54-13.7-9.28,10.48-.27,12.95-.41,6.16-1,5.73-2.93-1.76-3.17-1.22-5.14,2.76-6.88.78-6.62-2.49,5.09-5.8,7.6-13,3.66-15.36,3.8S208.83,480.89,211.51,483.18Z"/><path class="cls-7" d="M207.72,494.3s2.36,1.48,2.24,5.75-1.59,5.4.21,6.82.37,5.66,2,4.17,2.81-3.09,2.06-6-2-4.74-2.27-6.57-2-3.91-3-4.81S206.11,492.19,207.72,494.3Z"/><path class="cls-8" d="M214.55,474.42a70.59,70.59,0,0,0,7.56-7.49c2.31-3,3.61-4.17,5.74-8.84s2-.39,0,5-4.79,8.34-8,10.32S213.36,475.46,214.55,474.42Z"/><path class="cls-6" d="M701.06,220s1.65,2.13,1.54,2.77-1.48.67-5.3-.78-12-3.71-16.88-2.3-1.61,3.9-5.55,3.5-2.94,3.8-.35,5.6,4.88,2.26,5.93,4.16,4.43,3.45,8.13,3.76,5.1,1.38,9.14-1,8.08-5.13,8.77-9.1.45-6.25,3.83-4.7,2.54,1.92,1.28,5.27,0,7.8,2.06,12.93,6.55,10.81,11.22,12.17,7.56-.14,11.15.13,4.26-1.53,3.24-4.23-2.41-6.24-3.6-8.88-2.88-4.64-8.23-5.3-9.06-1.66-9.78-4.8-.63-4.11.42-4.37S703,215,701.06,220Z"/><path class="cls-6" d="M707.75,228.3s-11,12.68-15,11.82-9.7-3.85-8.13-.79,5.6,3.76,6.67,6.62,2.75,5.14,4.86,2.52,9.08-16.35,9.73-13.37-.08,10.48,0,13,.83,6.19,2.75,5.82,3.22-1.64,5.17-1,6.79,3,6.59,1-5-2.65-7.4-6-3.22-13.12-3.29-15.47S710.13,225.7,707.75,228.3Z"/><path class="cls-7" d="M696.77,224.14s-1.56,2.32-5.82,2.05-5.34-1.77-6.83,0-5.66.17-4.23,1.81,3,2.9,6,2.26,4.8-1.87,6.65-2.06,4-1.84,4.9-2.85S698.93,222.61,696.77,224.14Z"/><path class="cls-8" d="M716.41,231.63a71.07,71.07,0,0,0,7.24,7.81c2.91,2.41,4,3.75,8.63,6s.32,2-4.95-.14-8.18-5.07-10.05-8.3S715.41,230.41,716.41,231.63Z"/><path class="cls-6" d="M825.6,276.56s1.09,2.47.84,3.06-1.6.3-5-2-10.73-6.48-15.84-6.28-2.5,3.39-6.23,2.06-3.76,3-1.68,5.35,4.2,3.36,4.77,5.46,3.46,4.41,7,5.6,4.61,2.57,9.12,1.18,9.07-3,10.69-6.73,1.94-5.95,4.84-3.64,2,2.48,0,5.42-1.82,7.58-1.09,13.05,3.77,12.06,8,14.5,7.37,1.68,10.79,2.8,4.5-.46,4.16-3.33-.85-6.64-1.37-9.48-1.69-5.2-6.72-7.12-8.4-3.79-8.35-7,.37-4.13,1.46-4.13S828.65,272.15,825.6,276.56Z"/><path class="cls-6" d="M830.12,286.2s-13.73,9.67-17.41,7.87S804.2,288,805,291.35s4.53,5,4.88,8S811.33,305,814,303s12.74-13.69,12.65-10.65-2.59,10.15-3.13,12.57-.68,6.21,1.27,6.31,3.52-.83,5.27.23,5.88,4.52,6.16,2.54-4.22-3.78-5.74-7.65,0-13.51.52-15.81S833.05,284.24,830.12,286.2Z"/><path class="cls-7" d="M820.45,279.53s-2.06,1.87-6.14.58-4.76-3-6.62-1.64-5.54-1.19-4.55.74,2.21,3.54,5.26,3.63,5.11-.67,6.94-.41,4.3-.83,5.45-1.59S822.92,278.55,820.45,279.53Z"/><path class="cls-8" d="M837.73,291.5a69.91,69.91,0,0,0,5.15,9.32c2.25,3,3,4.6,6.94,7.93s-.18,2.05-4.77-1.33-6.73-6.88-7.77-10.47S837,290.07,837.73,291.5Z"/><path class="cls-6" d="M922.16,370.24s.06,2.69-.41,3.14-1.59-.34-3.79-3.78-7.4-10.12-12.18-11.91-3.62,2.17-6.55-.5-4.62,1.3-3.61,4.29,2.57,4.72,2.28,6.87,1.5,5.41,4.29,7.87,3.26,4.15,8,4.61,9.54.7,12.46-2.08,4.09-4.75,5.87-1.49.9,3.06-2.11,5-4.61,6.29-6,11.61-1.18,12.59,1.76,16.46,6.16,4.4,8.88,6.75,4.33,1.32,5.12-1.47,1.78-6.45,2.4-9.27.45-5.44-3.45-9.16-6.29-6.74-5-9.69,2-3.67,3-3.25S926.67,367.34,922.16,370.24Z"/><path class="cls-6" d="M922.61,380.87s-16.4,3.62-19.1.54-5.51-8.88-6.06-5.49,2.25,6.36,1.41,9.29-.85,5.77,2.4,4.93,17-7.72,15.78-4.94-6.31,8.36-7.74,10.38-3,5.47-1.27,6.31,3.57.6,4.78,2.25,3.67,6.44,4.7,4.72-2.44-5.11-2.34-9.27,5.24-12.46,6.58-14.38S926.07,380.2,922.61,380.87Z"/><path class="cls-7" d="M916.27,371s-2.63.93-5.9-1.83-3.23-4.6-5.47-4.07-4.65-3.24-4.48-1.07.67,4.12,3.45,5.37,5,1.36,6.56,2.31,4.29.89,5.64.64S918.92,371,916.27,371Z"/><path class="cls-8" d="M927.58,388.7a69.6,69.6,0,0,0,1.16,10.58c.9,3.67,1,5.42,3.34,10s-1,1.83-3.89-3.06-3.55-8.95-3.13-12.66S927.5,387.12,927.58,388.7Z"/><path class="cls-6" d="M975.69,470.24s-.73,2.59-1.31,2.89-1.42-.8-2.52-4.73-4.12-11.84-8.17-14.95-4.09,1-6.11-2.4-4.8-.11-4.71,3.05,1.08,5.27.17,7.24-.15,5.61,1.8,8.78,1.91,4.92,6.26,6.74,8.93,3.45,12.53,1.65,5.3-3.34,6,.29,0,3.19-3.47,4.16-6.25,4.66-9.19,9.33-4.81,11.69-3.13,16.26,4.6,6,6.52,9,3.75,2.53,5.33.1,3.58-5.65,5-8.16,2-5.08-.62-9.77-4-8.28-2-10.73,2.94-2.94,3.77-2.25S980.85,468.79,975.69,470.24Z"/><path class="cls-6" d="M973,480.54s-16.74-1.34-18.42-5.08-2.67-10.09-4.2-7,.3,6.73-1.37,9.29-2.5,5.27.86,5.42,18.55-2.4,16.54-.11-8.48,6.15-10.45,7.66-4.48,4.35-3.05,5.67,3.24,1.61,3.91,3.54,1.63,7.23,3.11,5.89-.83-5.6.48-9.55,8.65-10.38,10.5-11.82S976.51,480.91,973,480.54Z"/><path class="cls-7" d="M969.84,469.23s-2.79.12-5.1-3.48-1.75-5.34-4-5.49-3.5-4.46-4-2.34-.56,4.14,1.73,6.15,4.35,2.76,5.6,4.13,3.84,2.11,5.2,2.25S972.35,470.05,969.84,469.23Z"/><path class="cls-8" d="M975.47,489.48a70.68,70.68,0,0,0-2,10.46c-.21,3.77-.61,5.47.28,10.53s-1.45,1.46-2.83-4.07-.77-9.6.71-13S975.86,487.94,975.47,489.48Z"/><path class="cls-9" d="M192.35,512.89C235.6,331.64,399.22,203,593.71,203,790,203,949.89,330.55,991.28,514.36"/><path class="cls-10" d="M159.74,512.89c46.77-196,221.77-338.35,432.07-338.35,212.27,0,388.06,141.07,432.81,339.82"/><path class="cls-11" d="M119.51,514.36c51.66-216.46,241.92-374.5,474.2-374.5,234.46,0,421.72,155,471.15,374.5"/><path class="cls-6" d="M141,792.54s-2.18-1.57-2.82-1.45-.62,1.51,1,5.28,4.13,11.83,2.89,16.78-3.84,1.75-3.3,5.67-3.69,3.08-5.58.55-2.43-4.8-4.37-5.79-3.6-4.3-4-8-1.56-5,.72-9.17,4.85-8.25,8.79-9.08,6.23-.67,4.56-4-2-2.48-5.31-1.09-7.79.22-13-1.61-11-6.17-12.56-10.8-.12-7.56-.51-11.13,1.37-4.31,4.11-3.39,6.32,2.2,9,3.29,4.73,2.72,5.58,8,2,9,5.14,9.61,4.13.49,4.35-.58S145.91,790.47,141,792.54Z"/><path class="cls-6" d="M132.47,786.14s-12.29,11.44-11.28,15.42,4.18,9.57,1.07,8.1-4-5.46-6.85-6.43-5.23-2.58-2.69-4.77,16-9.65,13-10.19-10.47.44-13,.48-6.21-.62-5.91-2.54,1.53-3.28.86-5.21-3.22-6.68-1.22-6.55,2.83,4.91,6.3,7.19,13.23,2.76,15.58,2.74S135,783.67,132.47,786.14Z"/><path class="cls-7" d="M137,797s-2.25,1.64-1.84,5.89,2,5.27.25,6.82,0,5.67-1.66,4.3-3-2.89-2.47-5.89,1.7-4.87,1.82-6.72,1.7-4,2.68-5S138.47,794.76,137,797Z"/><path class="cls-8" d="M128.84,777.6a69.56,69.56,0,0,1-8-7c-2.51-2.82-3.89-3.91-6.33-8.42s-2-.25.32,4.94,5.35,8,8.64,9.76S130.1,778.56,128.84,777.6Z"/><path class="cls-6" d="M180.92,874.54s-2.4-1.22-3-1-.37,1.58,1.78,5.06,5.94,11,5.49,16.12-3.51,2.33-2.36,6.12-3.16,3.62-5.43,1.42-3.15-4.36-5.22-5-4.24-3.68-5.25-7.26-2.34-4.73-.73-9.17,3.48-8.91,7.25-10.34,6-1.65,3.87-4.66-2.37-2.13-5.41-.25-7.67,1.45-13.09.46-11.86-4.36-14.1-8.68-1.31-7.45-2.26-10.92.68-4.47,3.53-4,6.59,1.17,9.4,1.83,5.11,1.94,6.78,7.06,3.37,8.58,6.59,8.68,4.15-.17,4.2-1.25S185.48,871.71,180.92,874.54Z"/><path class="cls-6" d="M171.52,869.55s-10.33,13.24-8.71,17,5.63,8.79,2.33,7.83-4.76-4.77-7.77-5.27-5.58-1.72-3.41-4.29,14.3-12.05,11.26-12.12-10.27,2.09-12.71,2.52-6.23.37-6.24-1.58,1-3.48,0-5.28-4.23-6.09-2.24-6.27,3.57,4.4,7.36,6.1,13.5.64,15.81.26S173.62,866.72,171.52,869.55Z"/><path class="cls-7" d="M177.71,879.53s-2,2-.89,6.11,2.76,4.9,1.32,6.7.92,5.59-1,4.5-3.43-2.38-3.37-5.43.92-5.07.75-6.92,1-4.25,1.85-5.35S178.8,877.12,177.71,879.53Z"/><path class="cls-8" d="M166.59,861.69a71,71,0,0,1-9.05-5.6c-2.92-2.4-4.45-3.25-7.57-7.32s-2.06.07,1.09,4.83,6.54,7.06,10.07,8.28S168,862.44,166.59,861.69Z"/><path class="cls-6" d="M236.52,947.38s-2.62-.61-3.16-.24,0,1.63,2.94,4.48,8.41,9.29,9.19,14.34-2.85,3.1-.83,6.51-2.2,4.27-4.93,2.67-4.1-3.47-6.27-3.63-5-2.56-6.84-5.79-3.4-4-2.9-8.73,1.25-9.48,4.56-11.78,5.48-3,2.65-5.44-2.81-1.51-5.31,1.05-7.1,3.24-12.6,3.57-12.57-1.39-15.77-5-3.05-6.92-4.81-10.06-.41-4.51,2.48-4.72,6.67-.44,9.56-.47,5.43.66,8.28,5.23,5.32,7.52,8.47,6.86,4-1.16,3.78-2.23S240.27,943.54,236.52,947.38Z"/><path class="cls-6" d="M226.2,944.78s-6.86,15.33-4.39,18.6,7.58,7.19,4.14,7-5.76-3.5-8.81-3.26-5.82-.34-4.34-3.35,11-15.13,8-14.46-9.47,4.49-11.74,5.48-6,1.85-6.43,0,.13-3.61-1.24-5.13-5.56-4.9-3.67-5.55,4.51,3.41,8.6,4.16,13.26-2.61,15.42-3.54S227.56,941.53,226.2,944.78Z"/><path class="cls-7" d="M234.6,953s-1.44,2.39.6,6.15,3.85,4.1,2.88,6.18,2.23,5.21.15,4.6-3.9-1.49-4.57-4.46-.33-5.14-.93-6.89,0-4.38.52-5.65S235.09,950.39,234.6,953Z"/><path class="cls-8" d="M219.54,938.33a71.23,71.23,0,0,1-10.13-3.27c-3.41-1.63-5.1-2.09-9.11-5.3s-2,.57,2.22,4.43,8,5.29,11.76,5.63S221.07,938.73,219.54,938.33Z"/><path class="cls-6" d="M306.06,1007.91s-2.69-.16-3.16.29.29,1.6,3.64,3.94,9.83,7.77,11.44,12.62-2.31,3.53.25,6.56-1.47,4.57-4.42,3.45-4.62-2.75-6.79-2.54-5.34-1.71-7.69-4.59-4-3.41-4.31-8.13-.33-9.56,2.56-12.37,4.89-3.9,1.71-5.81-3-1-5.07,1.92-6.46,4.37-11.84,5.6-12.62.71-16.38-2.38-4.16-6.31-6.4-9.12-1.15-4.38,1.66-5.07,6.51-1.53,9.35-2,5.46-.25,9,3.79,6.49,6.54,9.49,5.36,3.74-1.8,3.36-2.82S309.12,1003.51,306.06,1007.91Z"/><path class="cls-6" d="M295.45,1007.06s-4.24,16.25-1.26,19.07,8.66,5.83,5.25,6.26-6.26-2.49-9.23-1.76-5.8.63-4.83-2.58,8.36-16.74,5.54-15.59-8.6,6-10.67,7.35-5.58,2.81-6.36,1-.46-3.59-2.06-4.86-6.3-3.91-4.54-4.87,5,2.63,9.17,2.69,12.65-4.77,14.62-6S296.26,1003.63,295.45,1007.06Z"/><path class="cls-7" d="M305.09,1013.77s-1,2.59,1.61,6,4.47,3.41,3.86,5.63,3.06,4.77.9,4.51-4.09-.82-5.24-3.65-1.17-5-2.06-6.64-.73-4.32-.42-5.66S305.14,1011.12,305.09,1013.77Z"/><path class="cls-8" d="M287.81,1001.8a70.85,70.85,0,0,1-10.53-1.56c-3.63-1-5.37-1.22-9.85-3.71s-1.86.88,2.92,4,8.8,3.88,12.52,3.6S289.39,1001.94,287.81,1001.8Z"/><path class="cls-6" d="M380.61,1053s-2.68.25-3.07.77.52,1.54,4.2,3.33,10.91,6.17,13.24,10.71-1.73,3.84,1.26,6.44-.75,4.75-3.84,4.09-5-2-7.09-1.47-5.55-.86-8.32-3.34-4.49-2.76-5.5-7.37-1.8-9.4.62-12.62,4.23-4.61.79-6-3.14-.54-4.71,2.67-5.71,5.31-10.83,7.36-12.36,2.64-16.55.17-5.08-5.6-7.73-8-1.82-4.15.86-5.26,6.19-2.52,8.92-3.46,5.36-1.08,9.51,2.36,7.42,5.46,10.2,3.84,3.42-2.36,2.89-3.31S383,1048.2,380.61,1053Z"/><path class="cls-6" d="M370,1053.81s-1.69,16.71,1.69,19,9.45,4.44,6.15,5.38-6.57-1.49-9.39-.31-5.63,1.51-5.17-1.81,5.68-17.83,3.07-16.26-7.57,7.25-9.41,8.9-5.08,3.64-6.12,2-1-3.47-2.79-4.48-6.82-2.9-5.24-4.11,5.36,1.82,9.48,1.24,11.76-6.65,13.52-8.21S370.26,1050.29,370,1053.81Z"/><path class="cls-7" d="M380.56,1059s-.62,2.72,2.5,5.64,4.95,2.67,4.68,5,3.76,4.24,1.59,4.32-4.17-.18-5.74-2.79-1.93-4.78-3.06-6.25-1.38-4.16-1.28-5.53S380.2,1056.33,380.56,1059Z"/><path class="cls-8" d="M361.64,1049.78a70.13,70.13,0,0,1-10.64.09c-3.75-.47-5.5-.38-10.31-2.16s-1.7,1.16,3.5,3.51,9.29,2.48,12.93,1.63S363.22,1049.68,361.64,1049.78Z"/><path class="cls-6" d="M467,1084.44s-2.6.71-2.9,1.29.78,1.42,4.71,2.55,11.8,4.22,14.87,8.3-1.05,4.08,2.35,6.13.07,4.8-3.09,4.69-5.25-1.13-7.24-.24-5.61.1-8.76-1.87-4.9-2-6.68-6.32-3.38-9-1.55-12.54,3.39-5.27-.24-6.06-3.19,0-4.19,3.44-4.72,6.21-9.41,9.11-11.73,4.71-16.28,3-6-4.65-9-6.59-2.5-3.78-.05-5.33,5.67-3.54,8.2-4.93,5.09-2,9.77.7,8.24,4.11,10.7,2,3-2.9,2.29-3.74S468.44,1079.29,467,1084.44Z"/><path class="cls-6" d="M456.63,1087s1.19,16.75,4.91,18.47,10.07,2.75,7,4.25-6.73-.36-9.3,1.29-5.29,2.46-5.41-.9,2.55-18.53.25-16.54-6.23,8.43-7.76,10.38-4.37,4.45-5.68,3-1.59-3.25-3.52-3.94-7.21-1.69-5.86-3.16,5.59.88,9.55-.39,10.46-8.57,11.92-10.4S456.29,1083.52,456.63,1087Z"/><path class="cls-7" d="M467.91,1090.3s-.14,2.78,3.43,5.13,5.33,1.79,5.46,4.09,4.42,3.54,2.3,4-4.14.53-6.13-1.78-2.72-4.38-4.08-5.63-2.08-3.86-2.21-5.23S467.1,1087.77,467.91,1090.3Z"/><path class="cls-8" d="M447.7,1084.49a69.53,69.53,0,0,1-10.47,1.9c-3.77.18-5.48.57-10.53-.36s-1.48,1.44,4.05,2.86,9.58.86,13-.6S449.24,1084.12,447.7,1084.49Z"/><path class="cls-6" d="M554.58,1098.24s-2.39,1.25-2.56,1.88,1.07,1.22,5.14,1.5,12.43,1.6,16.3,4.93-.15,4.22,3.6,5.49,1.09,4.68-2,5.24-5.37,0-7.12,1.31-5.46,1.3-9,0-5.21-.87-7.88-4.76-5.21-8-4.18-11.92,2.19-5.87-1.52-5.86-3.12.68-3.36,4.25-3.29,7.07-7.26,10.9-10.46,7.09-15.27,6.39-6.82-3.28-10.19-4.53-3.24-3.16-1.18-5.2,4.79-4.66,7-6.56,4.55-3,9.69-1.4,8.93,2.27,10.89-.29,2.28-3.47,1.43-4.14S554.94,1092.89,554.58,1098.24Z"/><path class="cls-6" d="M545,1103s4.73,16.11,8.74,17,10.42.55,7.72,2.67-6.65,1.08-8.82,3.24-4.64,3.52-5.47.27-1.45-18.65-3.28-16.21-4.28,9.56-5.36,11.79-3.34,5.28-4.92,4.14-2.24-2.83-4.27-3.1-7.42-.11-6.4-1.84,5.65-.33,9.24-2.42,8.4-10.59,9.43-12.7S544,1099.62,545,1103Z"/><path class="cls-7" d="M556.76,1103.76s.46,2.75,4.45,4.29,5.59.61,6.2,2.83,5.08,2.52,3.1,3.41-3.93,1.4-6.37-.43-3.59-3.7-5.19-4.64-2.84-3.33-3.27-4.63S555.44,1101.47,556.76,1103.76Z"/><path class="cls-8" d="M535.79,1102.39a71.37,71.37,0,0,1-9.83,4.09c-3.65,1-5.24,1.72-10.37,1.88s-1.14,1.72,4.56,1.93,9.55-1.2,12.6-3.35S537.21,1101.7,535.79,1102.39Z"/><path class="cls-6" d="M650.5,1096.64s-2.08,1.71-2.12,2.36,1.3,1,5.35.4,12.49-1,17,1.45.72,4.15,4.66,4.62,2,4.35-.89,5.54-5.25,1.14-6.7,2.76-5.07,2.4-8.75,1.9-5.27.23-8.7-3-6.76-6.77-6.56-10.79.92-6.2-2.71-5.42-2.9,1.32-2.4,4.86-1.75,7.6-4.84,12.16-8.75,9.12-13.61,9.43-7.35-1.79-10.9-2.31-3.83-2.42-2.24-4.84,3.72-5.56,5.45-7.87,3.83-3.9,9.19-3.38,9.21.36,10.6-2.54,1.51-3.87.54-4.36S649.74,1091.33,650.5,1096.64Z"/><path class="cls-6" d="M642.15,1103.25s8,14.77,12.08,14.81,10.31-1.63,8.11,1-6.28,2.45-8,5-3.82,4.41-5.3,1.4-5.29-18-6.58-15.18-2.2,10.24-2.8,12.65-2.16,5.85-4,5.08-2.78-2.32-4.82-2.15-7.27,1.42-6.64-.47,5.46-1.5,8.54-4.29,6-12.1,6.59-14.38S640.4,1100.19,642.15,1103.25Z"/><path class="cls-7" d="M653.78,1101.59s1,2.59,5.24,3.26,5.59-.56,6.66,1.48,5.49,1.41,3.74,2.69-3.56,2.19-6.32.91-4.28-2.88-6-3.46-3.48-2.66-4.16-3.86S652,1099.62,653.78,1101.59Z"/><path class="cls-8" d="M633,1104.6a70,70,0,0,1-8.77,6c-3.37,1.71-4.76,2.77-9.74,4s-.76,1.91,4.86.94,9.09-3.16,11.62-5.9S634.23,1103.62,633,1104.6Z"/><path class="cls-6" d="M744.7,1076.42s-1.71,2.09-1.62,2.73,1.47.71,5.32-.64,12.07-3.4,16.93-1.85,1.51,3.93,5.47,3.64,2.84,3.87.2,5.61-4.94,2.12-6,4-4.52,3.33-8.23,3.54-5.13,1.25-9.11-1.28-7.94-5.34-8.52-9.33-.29-6.25-3.7-4.79-2.6,1.85-1.42,5.23-.26,7.79-2.41,12.87S724.74,1106.78,720,1108s-7.55-.34-11.14-.17-4.23-1.63-3.13-4.31,2.57-6.18,3.83-8.78,3-4.56,8.37-5.08,9.1-1.42,9.91-4.54.73-4.09-.31-4.38S742.93,1071.36,744.7,1076.42Z"/><path class="cls-6" d="M737.79,1084.51s10.67,13,14.7,12.21,9.81-3.59,8.15-.58-5.69,3.61-6.84,6.45-2.89,5.06-4.92,2.39-8.65-16.58-9.38-13.63-.19,10.48-.31,13-1,6.16-2.9,5.74-3.17-1.73-5.14-1.18-6.87,2.8-6.61.82,5.06-2.52,7.55-5.85,3.57-13,3.7-15.38S735.48,1081.85,737.79,1084.51Z"/><path class="cls-7" d="M748.88,1080.64s1.49,2.36,5.77,2.2,5.38-1.63,6.82.17,5.65.33,4.18,1.92-3.07,2.83-6,2.1-4.76-2-6.6-2.23-3.92-1.94-4.82-3S746.76,1079.05,748.88,1080.64Z"/><path class="cls-8" d="M729,1087.61a70.4,70.4,0,0,1-7.43,7.62c-3,2.32-4.14,3.63-8.8,5.8s-.37,2,5,0,8.31-4.85,10.26-8S730.08,1086.41,729,1087.61Z"/><path class="cls-6" d="M836.16,1038.29s-1.27,2.37-1.06,3,1.57.42,5.1-1.64,11.19-5.64,16.26-5.06,2.24,3.58,6.06,2.53,3.53,3.26,1.27,5.47-4.44,3-5.17,5.08-3.79,4.14-7.39,5-4.8,2.21-9.19.49-8.82-3.73-10.15-7.53-1.48-6.08-4.55-4-2.19,2.32-.39,5.41,1.24,7.7.1,13.09S822.37,1071.9,818,1074s-7.48,1.11-11,2-4.46-.8-3.9-3.64,1.35-6.55,2.09-9.35,2.07-5,7.24-6.59,8.66-3.13,8.86-6.35-.06-4.15-1.15-4.23S833.46,1033.66,836.16,1038.29Z"/><path class="cls-6" d="M830.93,1047.55s13,10.69,16.76,9.17,8.94-5.39,7.89-2.12-4.9,4.63-5.48,7.63-1.87,5.52-4.38,3.29-11.66-14.62-11.81-11.58,1.82,10.32,2.18,12.77.2,6.24-1.75,6.19-3.45-1.09-5.28-.17-6.2,4.06-6.33,2.07,4.5-3.45,6.3-7.19,1-13.48.68-15.8S828.15,1045.38,830.93,1047.55Z"/><path class="cls-7" d="M841.07,1041.63s1.92,2,6.08,1,5-2.62,6.73-1.13,5.61-.76,4.48,1.08-2.48,3.37-5.52,3.22-5-1-6.89-.93-4.23-1.16-5.31-2S838.69,1040.48,841.07,1041.63Z"/><path class="cls-8" d="M822.94,1052.26a70.68,70.68,0,0,1-5.85,8.9c-2.47,2.85-3.37,4.36-7.52,7.38s0,2,4.86-1,7.23-6.35,8.54-9.84S823.73,1050.89,822.94,1052.26Z"/><path class="cls-6" d="M909.91,987.29s-.89,2.54-.58,3.12,1.61.16,4.77-2.43,10.17-7.33,15.27-7.55,2.77,3.18,6.38,1.55,4,2.66,2.11,5.2-3.9,3.69-4.3,5.83-3.1,4.68-6.51,6.15-4.39,2.93-9,1.92-9.29-2.29-11.2-5.84-2.42-5.77-5.12-3.23-1.81,2.63.46,5.4,2.43,7.41,2.16,12.91-2.78,12.34-6.77,15.11-7.21,2.28-10.53,3.67-4.53-.09-4.42-3,.3-6.68.59-9.56,1.26-5.31,6.12-7.64,8.06-4.46,7.75-7.67-.71-4.09-1.8-4S906.51,983.14,909.91,987.29Z"/><path class="cls-6" d="M906.19,997.26s14.47,8.52,18,6.42,8-6.73,7.46-3.33-4.11,5.34-4.21,8.4-1,5.75-3.81,3.94-13.82-12.62-13.48-9.59,3.41,9.91,4.15,12.28,1.18,6.12-.75,6.39-3.58-.54-5.24.65-5.49,5-5.93,3,3.9-4.11,5.09-8.09-1.12-13.47-1.81-15.71S903.11,995.55,906.19,997.26Z"/><path class="cls-7" d="M915.28,989.82s2.21,1.7,6.17.09,4.5-3.38,6.47-2.18,5.42-1.64,4.59.37-1.91,3.71-4.94,4-5.15-.24-7,.17-4.35-.48-5.55-1.15S912.75,989.06,915.28,989.82Z"/><path class="cls-8" d="M899,1003.17a70.82,70.82,0,0,1-4.37,9.71c-2,3.2-2.64,4.83-6.27,8.46s.34,2,4.65-1.71,6.14-7.41,6.89-11.07S899.61,1001.69,899,1003.17Z"/><path class="cls-6" d="M972.47,924.49s-.52,2.64-.14,3.17,1.63-.07,4.39-3.09,9-8.71,14-9.65,3.19,2.75,6.53.62,4.34,2.06,2.83,4.84-3.33,4.21-3.42,6.39-2.4,5.07-5.56,7-3.93,3.53-8.63,3.19-9.53-1-11.93-4.18-3.22-5.37-5.53-2.47-1.41,2.86,1.23,5.28,3.47,7,4,12.47-1,12.6-4.54,15.92-6.81,3.29-9.89,5.14-4.49.56-4.8-2.32-.65-6.66-.78-9.54.48-5.45,5-8.44,7.34-5.57,6.57-8.7-1.29-3.95-2.35-3.7S968.51,920.87,972.47,924.49Z"/><path class="cls-6" d="M970.21,934.89s15.54,6.36,18.73,3.78,6.94-7.8,6.91-4.37-3.3,5.88-3,8.92-.15,5.83-3.2,4.44S974.2,937.16,975,940.1s4.8,9.32,5.87,11.56,2,5.89.17,6.43-3.62,0-5.09,1.4-4.72,5.72-5.44,3.85,3.27-4.62,3.89-8.73-3-13.17-4-15.3S966.92,933.64,970.21,934.89Z"/><path class="cls-7" d="M978.14,926.23s2.44,1.36,6.12-.8,4-4,6.09-3.08,5.14-2.4,4.6-.3-1.37,4-4.31,4.71-5.13.5-6.87,1.16-4.37.15-5.66-.33S975.53,925.83,978.14,926.23Z"/><path class="cls-8" d="M964,941.76A71,71,0,0,1,961,952c-1.52,3.46-1.92,5.17-5,9.28s.63,2,4.35-2.36,5-8.21,5.24-11.94S964.33,940.22,964,941.76Z"/><path class="cls-6" d="M1023,849.7s-.1,2.69.36,3.15,1.59-.33,3.85-3.73,7.53-10,12.34-11.74,3.59,2.22,6.55-.42,4.61,1.37,3.56,4.34-2.64,4.69-2.38,6.85-1.57,5.39-4.4,7.81-3.32,4.1-8,4.5-9.55.56-12.43-2.26-4-4.8-5.85-1.57-.94,3,2,5,4.52,6.36,5.89,11.7,1,12.6-2,16.43-6.21,4.31-9,6.63-4.35,1.25-5.11-1.54-1.69-6.47-2.27-9.3-.37-5.45,3.58-9.12,6.38-6.65,5.13-9.61-1.89-3.7-2.9-3.3S1018.54,846.74,1023,849.7Z"/><path class="cls-6" d="M1022.42,860.32s16.35,3.85,19.09.8,5.63-8.79,6.14-5.4-2.34,6.32-1.54,9.27.77,5.78-2.46,4.89-16.94-7.94-15.72-5.15,6.2,8.45,7.6,10.49,3,5.5,1.18,6.32-3.58.55-4.81,2.18-3.76,6.39-4.76,4.66,2.5-5.08,2.46-9.23-5.06-12.53-6.38-14.47S1019,859.61,1022.42,860.32Z"/><path class="cls-7" d="M1028.9,850.53s2.61,1,5.92-1.75,3.29-4.56,5.52-4,4.7-3.17,4.5-1-.73,4.11-3.52,5.32-5,1.3-6.6,2.23-4.29.83-5.64.55S1026.25,850.54,1028.9,850.53Z"/><path class="cls-8" d="M1017.34,868.09a69.39,69.39,0,0,1-1.3,10.56c-.95,3.66-1.08,5.4-3.47,10s.93,1.83,3.93-3,3.67-8.89,3.3-12.61S1017.44,866.51,1017.34,868.09Z"/><path class="cls-6" d="M1055.13,773s.53,2.64,1.08,3,1.47-.68,2.88-4.52,5-11.49,9.29-14.28,4,1.33,6.27-1.92,4.8.26,4.47,3.4-1.48,5.17-.73,7.21-.28,5.61-2.47,8.61-2.28,4.76-6.76,6.24-9.16,2.76-12.62.68-5-3.73-6-.17-.21,3.18,3.14,4.41,5.88,5.14,8.44,10,3.9,12,1.88,16.45-5,5.64-7.19,8.52-3.94,2.23-5.32-.31-3.15-5.9-4.36-8.52-1.63-5.22,1.36-9.7,4.67-7.94,2.77-10.54-2.7-3.16-3.59-2.53S1050.09,771.16,1055.13,773Z"/><path class="cls-6" d="M1057,783.48s16.79-.05,18.75-3.65,3.44-9.86,4.72-6.67-.81,6.69.66,9.37,2.08,5.45-1.27,5.33-18.31-3.81-16.49-1.38,8,6.79,9.83,8.45,4.14,4.67,2.61,5.88-3.35,1.36-4.17,3.23-2.18,7.09-3.55,5.64,1.25-5.52.25-9.56-7.83-11-9.56-12.6S1053.48,783.57,1057,783.48Z"/><path class="cls-7" d="M1061,772.44s2.77.34,5.35-3.07,2.15-5.19,4.45-5.17,3.84-4.17,4.14-2,.24,4.17-2.19,6-4.55,2.42-5.9,3.69-4,1.81-5.36,1.85S1058.46,773.07,1061,772.44Z"/><path class="cls-8" d="M1053.87,792.2a70.79,70.79,0,0,1,1.18,10.58c-.09,3.78.19,5.51-1.08,10.48s1.32,1.57,3.12-3.84,1.51-9.51.29-13S1053.6,790.64,1053.87,792.2Z"/><path class="cls-6" d="M574,1031.09s2.3-1.4,2.42-2-1.14-1.15-5.23-1.15-12.51-.77-16.6-3.83-.12-4.21-3.95-5.24-1.41-4.59,1.66-5.36,5.36-.38,7-1.78,5.36-1.66,8.93-.64,5.26.51,8.18,4.21,5.74,7.66,5,11.62-1.78,6,1.92,5.74,3.06-.89,3.06-4.47,2.81-7.27,6.51-11.36,10-7.79,14.81-7.4,7,2.81,10.47,3.83,3.45,2.93,1.53,5.1-4.47,5-6.51,7-4.34,3.31-9.57,2-9.07-1.66-10.86,1-2,3.62-1.14,4.23S574,1036.45,574,1031.09Z"/><path class="cls-6" d="M583.15,1025.73s-5.8-15.76-9.86-16.37-10.44.16-7.88-2.14,6.56-1.53,8.57-3.83,4.4-3.83,5.45-.64,2.7,18.51,4.36,16,3.63-9.83,4.56-12.13,3-5.49,4.63-4.47,2.43,2.68,4.47,2.81,7.4-.38,6.51,1.4-5.62.72-9.07,3-7.65,11.13-8.55,13.3S584.45,1029,583.15,1025.73Z"/><path class="cls-7" d="M571.41,1025.73s-.64-2.72-4.73-4-5.62-.23-6.38-2.4-5.24-2.17-3.32-3.2,3.83-1.66,6.38,0,3.83,3.45,5.49,4.28,3.07,3.13,3.58,4.4S572.88,1027.93,571.41,1025.73Z"/><path class="cls-8" d="M592.43,1025.69A68.88,68.88,0,0,1,602,1021c3.57-1.22,5.1-2.07,10.21-2.58s1-1.79-4.68-1.62-9.45,1.84-12.34,4.2S591.05,1026.47,592.43,1025.69Z"/><path class="cls-6" d="M452,1005.77s2.59-.76,2.88-1.34-.81-1.41-4.75-2.48-11.88-4-15-8,1-4.1-2.45-6.09-.15-4.8,3-4.74,5.28,1,7.25.11,5.61-.2,8.79,1.72,4.94,1.87,6.79,6.21,3.53,8.89,1.76,12.51-3.29,5.32.35,6.05,3.19-.07,4.12-3.52,4.62-6.28,9.26-9.26,11.65-4.91,16.23-3.27,6,4.55,9.1,6.44,2.56,3.73.14,5.32-5.61,3.64-8.12,5.08-5.06,2.07-9.77-.54-8.32-4-10.74-1.85-2.92,3-2.22,3.79S450.56,1010.94,452,1005.77Z"/><path class="cls-6" d="M462.24,1003s-1.48-16.73-5.24-18.38S446.89,982,450,980.49s6.74.24,9.29-1.45,5.24-2.55,5.41.81-2.23,18.57,0,16.54,6.08-8.54,7.58-10.51,4.3-4.52,5.63-3.1,1.64,3.22,3.58,3.88,7.25,1.56,5.92,3.05-5.61-.78-9.55.56-10.3,8.75-11.73,10.61S462.64,1006.5,462.24,1003Z"/><path class="cls-7" d="M450.9,999.93s.09-2.79-3.52-5.08-5.36-1.7-5.53-4-4.48-3.46-2.37-4,4.13-.6,6.16,1.67,2.8,4.33,4.18,5.57,2.14,3.81,2.3,5.18S451.75,1002.44,450.9,999.93Z"/><path class="cls-8" d="M471.2,1005.38a71.61,71.61,0,0,1,10.44-2.08c3.77-.24,5.47-.66,10.53.19s1.46-1.46-4.09-2.79-9.6-.69-13,.82S469.67,1005.79,471.2,1005.38Z"/><path class="cls-6" d="M333,942.12s2.69.12,3.15-.34-.31-1.6-3.71-3.87-10-7.61-11.65-12.43,2.24-3.57-.37-6.55,1.4-4.6,4.37-3.53,4.66,2.67,6.82,2.43,5.38,1.61,7.78,4.45,4.08,3.35,4.45,8.05.49,9.56-2.35,12.42-4.82,4-1.61,5.84,3.05,1,5-2,6.38-4.48,11.73-5.81,12.61-.92,16.43,2.1,4.26,6.24,6.56,9,1.22,4.36-1.57,5.1-6.49,1.64-9.32,2.2-5.46.34-9.09-3.64-6.61-6.42-9.58-5.19-3.71,1.86-3.32,2.88S330,946.58,333,942.12Z"/><path class="cls-6" d="M343.6,942.79s4-16.32.93-19.09-8.76-5.68-5.36-6.17,6.31,2.39,9.26,1.6,5.79-.73,4.88,2.5-8.07,16.88-5.27,15.68,8.49-6.14,10.54-7.53,5.53-2.9,6.34-1.13.52,3.58,2.14,4.82,6.37,3.81,4.63,4.79-5.06-2.53-9.22-2.52-12.56,5-14.51,6.28S342.86,946.24,343.6,942.79Z"/><path class="cls-7" d="M333.84,936.25s1-2.61-1.7-5.93-4.54-3.33-4-5.56-3.14-4.72-1-4.5,4.1.76,5.3,3.56,1.26,5,2.17,6.61.81,4.3.52,5.64S333.84,938.9,333.84,936.25Z"/><path class="cls-8" d="M351.33,947.92a69.9,69.9,0,0,1,10.55,1.37c3.65,1,5.4,1.13,9.92,3.55s1.85-.92-3-4-8.87-3.73-12.58-3.39S349.75,947.81,351.33,947.92Z"/><path class="cls-6" d="M252.08,854.16s2.56.83,3.13.52.13-1.62-2.53-4.73-7.55-10-7.88-15.1,3.12-2.83,1.41-6.41,2.58-4.05,5.15-2.22,3.78,3.82,5.92,4.17,4.75,3,6.3,6.38,3,4.32,2.11,9-2.09,9.34-5.59,11.33-5.73,2.54-3.13,5.19,2.68,1.75,5.39-.58,7.36-2.59,12.87-2.43,12.39,2.5,15.25,6.44,2.43,7.16,3.89,10.44,0,4.53-2.88,4.48-6.69-.16-9.57-.38-5.34-1.14-7.77-6-4.63-8-7.83-7.58-4.08.8-4,1.88S248,857.65,252.08,854.16Z"/><path class="cls-6" d="M262.13,857.66s8.2-14.65,6-18.13-6.9-7.83-3.5-7.39,5.43,4,8.49,4,5.77.86,4,3.72-12.31,14.09-9.29,13.69,9.83-3.63,12.18-4.41,6.1-1.32,6.41.61-.46,3.59.77,5.22,5.1,5.38,3.16,5.86-4.19-3.81-8.2-4.91-13.44,1.41-15.67,2.14S260.49,860.78,262.13,857.66Z"/><path class="cls-7" d="M254.5,848.74s1.64-2.25-.05-6.18-3.47-4.42-2.32-6.41-1.75-5.39.27-4.6,3.75,1.83,4.14,4.85-.13,5.15.32,7-.38,4.36-1,5.58S253.78,851.29,254.5,848.74Z"/><path class="cls-8" d="M268.19,864.68a70,70,0,0,1,9.8,4.17c3.25,1.92,4.89,2.53,8.6,6.08s2-.39-1.82-4.61-7.53-6-11.21-6.65S266.7,864.15,268.19,864.68Z"/><path class="cls-6" d="M203.47,746.25s2.07,1.72,2.72,1.64.71-1.46-.61-5.33-3.31-12.08-1.73-16.94,3.94-1.48,3.67-5.44,3.9-2.81,5.61-.16,2.1,5,4,6.07,3.31,4.54,3.49,8.25,1.22,5.14-1.34,9.1-5.4,7.91-9.39,8.46-6.26.25-4.82,3.67,1.83,2.61,5.22,1.45,7.79.31,12.85,2.5,10.59,6.91,11.79,11.62-.39,7.55-.24,11.15-1.67,4.21-4.34,3.09-6.16-2.62-8.75-3.89-4.54-3-5-8.4-1.36-9.12-4.47-9.94-4.09-.77-4.38.28S198.39,748,203.47,746.25Z"/><path class="cls-6" d="M211.51,753.22s13-10.58,12.31-14.62-3.52-9.83-.52-8.15,3.57,5.72,6.4,6.88,5,2.93,2.36,4.95-16.65,8.53-13.7,9.28,10.48.26,12.95.4,6.16,1,5.73,2.94-1.76,3.16-1.22,5.13,2.76,6.89.78,6.62-2.49-5.09-5.8-7.6-13-3.65-15.36-3.8S208.83,755.51,211.51,753.22Z"/><path class="cls-7" d="M207.72,742.1s2.36-1.48,2.24-5.75-1.59-5.39.21-6.82.37-5.65,2-4.17,2.81,3.09,2.06,6-2,4.74-2.27,6.58-2,3.91-3,4.8S206.11,744.21,207.72,742.1Z"/><path class="cls-8" d="M214.55,762a70.59,70.59,0,0,1,7.56,7.49c2.31,3,3.61,4.16,5.74,8.83s2,.39,0-4.95-4.79-8.35-8-10.33S213.36,760.94,214.55,762Z"/><path class="cls-6" d="M701.06,1016.37s1.65-2.13,1.54-2.77-1.48-.67-5.3.78-12,3.72-16.88,2.3-1.61-3.9-5.55-3.49-2.94-3.8-.35-5.61,4.88-2.25,5.93-4.15,4.43-3.46,8.13-3.77,5.1-1.38,9.14,1,8.08,5.13,8.77,9.11.45,6.24,3.83,4.69,2.54-1.92,1.28-5.26,0-7.8,2.06-12.94,6.55-10.81,11.22-12.17,7.56.14,11.15-.12,4.26,1.52,3.24,4.23-2.41,6.24-3.6,8.87-2.88,4.64-8.23,5.3-9.06,1.66-9.78,4.8-.63,4.11.42,4.37S703,1021.38,701.06,1016.37Z"/><path class="cls-6" d="M707.75,1008.1s-11-12.68-15-11.81-9.7,3.84-8.13.79,5.6-3.76,6.67-6.63,2.75-5.14,4.86-2.52,9.08,16.35,9.73,13.38-.08-10.48,0-13,.83-6.19,2.75-5.82,3.22,1.65,5.17,1,6.79-3,6.59-1-5,2.66-7.4,6-3.22,13.13-3.29,15.47S710.13,1010.7,707.75,1008.1Z"/><path class="cls-7" d="M696.77,1012.26s-1.56-2.31-5.82-2-5.34,1.76-6.83,0-5.66-.18-4.23-1.81,3-2.91,6-2.26,4.8,1.86,6.65,2.05,4,1.84,4.9,2.85S698.93,1013.79,696.77,1012.26Z"/><path class="cls-8" d="M716.41,1004.77a71.07,71.07,0,0,1,7.24-7.81c2.91-2.4,4-3.74,8.63-6s.32-2-4.95.15-8.18,5.07-10.05,8.29S715.41,1006,716.41,1004.77Z"/><path class="cls-6" d="M825.6,959.84s1.09-2.46.84-3.06-1.6-.29-5,2-10.73,6.47-15.84,6.27-2.5-3.39-6.23-2.05-3.76-3-1.68-5.36,4.2-3.36,4.77-5.46,3.46-4.41,7-5.6,4.61-2.57,9.12-1.18,9.07,3,10.69,6.73,1.94,6,4.84,3.64,2-2.47,0-5.41-1.82-7.59-1.09-13,3.77-12.07,8-14.51,7.37-1.68,10.79-2.8,4.5.46,4.16,3.34-.85,6.63-1.37,9.47-1.69,5.2-6.72,7.12-8.4,3.79-8.35,7,.37,4.14,1.46,4.14S828.65,964.25,825.6,959.84Z"/><path class="cls-6" d="M830.12,950.2s-13.73-9.67-17.41-7.87-8.51,6.06-7.71,2.72,4.53-5,4.88-8,1.45-5.65,4.12-3.62,12.74,13.7,12.65,10.65-2.59-10.15-3.13-12.57-.68-6.2,1.27-6.31,3.52.83,5.27-.22,5.88-4.53,6.16-2.55-4.22,3.78-5.74,7.65,0,13.52.52,15.81S833.05,952.16,830.12,950.2Z"/><path class="cls-7" d="M820.45,956.88s-2.06-1.87-6.14-.59-4.76,3-6.62,1.64-5.54,1.19-4.55-.74,2.21-3.54,5.26-3.62,5.11.66,6.94.4,4.3.83,5.45,1.59S822.92,957.85,820.45,956.88Z"/><path class="cls-8" d="M837.73,944.9a70.56,70.56,0,0,1,5.15-9.32c2.25-3,3-4.6,6.94-7.92s-.18-2-4.77,1.33-6.73,6.88-7.77,10.46S837,946.33,837.73,944.9Z"/><path class="cls-6" d="M922.16,866.16s.06-2.69-.41-3.14-1.59.35-3.79,3.79-7.4,10.11-12.18,11.9-3.62-2.17-6.55.51-4.62-1.3-3.61-4.3,2.57-4.72,2.28-6.87,1.5-5.41,4.29-7.87,3.26-4.14,8-4.61,9.54-.69,12.46,2.09,4.09,4.74,5.87,1.49.9-3.07-2.11-5-4.61-6.3-6-11.62-1.18-12.58,1.76-16.46,6.16-4.4,8.88-6.75,4.33-1.31,5.12,1.47,1.78,6.45,2.4,9.27.45,5.45-3.45,9.16-6.29,6.74-5,9.69,2,3.67,3,3.25S926.67,869.06,922.16,866.16Z"/><path class="cls-6" d="M922.61,855.53s-16.4-3.62-19.1-.53-5.51,8.87-6.06,5.48,2.25-6.35,1.41-9.29-.85-5.77,2.4-4.93,17,7.72,15.78,5-6.31-8.37-7.74-10.39-3-5.46-1.27-6.31,3.57-.59,4.78-2.25,3.67-6.44,4.7-4.72-2.44,5.11-2.34,9.27,5.24,12.46,6.58,14.38S926.07,856.2,922.61,855.53Z"/><path class="cls-7" d="M916.27,865.42s-2.63-.93-5.9,1.83-3.23,4.6-5.47,4.07-4.65,3.24-4.48,1.08.67-4.12,3.45-5.38,5-1.36,6.56-2.31,4.29-.89,5.64-.63S918.92,865.37,916.27,865.42Z"/><path class="cls-8" d="M927.58,847.7a69.6,69.6,0,0,1,1.16-10.58c.9-3.67,1-5.42,3.34-10s-1-1.83-3.89,3.07-3.55,8.94-3.13,12.65S927.5,849.28,927.58,847.7Z"/><path class="cls-6" d="M975.69,766.16s-.73-2.59-1.31-2.88-1.42.79-2.52,4.73-4.12,11.84-8.17,14.94-4.09-1-6.11,2.4-4.8.11-4.71-3.05,1.08-5.26.17-7.24-.15-5.61,1.8-8.78,1.91-4.91,6.26-6.73,8.93-3.46,12.53-1.65,5.3,3.34,6-.3,0-3.19-3.47-4.15-6.25-4.67-9.19-9.34-4.81-11.69-3.13-16.26,4.6-6,6.52-9,3.75-2.53,5.33-.1,3.58,5.65,5,8.17,2,5.07-.62,9.77-4,8.28-2,10.72,2.94,2.94,3.77,2.25S980.85,767.61,975.69,766.16Z"/><path class="cls-6" d="M973,755.87s-16.74,1.33-18.42,5.07-2.67,10.09-4.2,7,.3-6.73-1.37-9.29-2.5-5.27.86-5.41,18.55,2.39,16.54.11-8.48-6.16-10.45-7.67-4.48-4.34-3.05-5.67,3.24-1.61,3.91-3.54,1.63-7.23,3.11-5.89-.83,5.6.48,9.55,8.65,10.38,10.5,11.83S976.51,755.5,973,755.87Z"/><path class="cls-7" d="M969.84,767.17s-2.79-.11-5.1,3.48-1.75,5.34-4,5.49-3.5,4.46-4,2.34-.56-4.14,1.73-6.15,4.35-2.75,5.6-4.13,3.84-2.1,5.2-2.25S972.35,766.35,969.84,767.17Z"/><path class="cls-8" d="M975.47,746.92a70.38,70.38,0,0,1-2-10.46c-.21-3.77-.61-5.47.28-10.53s-1.45-1.46-2.83,4.08-.77,9.59.71,13S975.86,748.46,975.47,746.92Z"/><path class="cls-9" d="M192.35,723.51c43.25,181.25,206.87,309.88,401.36,309.88C790,1033.39,949.89,905.85,991.28,722"/><path class="cls-10" d="M159.74,723.51c46.77,196,221.77,338.36,432.07,338.36,212.27,0,388.06-141.08,432.81-339.83"/><path class="cls-11" d="M119.51,722c51.66,216.47,241.92,374.5,474.2,374.5,234.46,0,421.72-155,471.15-374.5"/><path class="cls-12" d="M462.58,514.36a77.49,77.49,0,0,1-27.23-21.62c-12.26-15.31-21.79-15.1-21.79-15.1s28.77-21.63,73.7-6.5c0,0-27-31.08-20.08-82.65,0,0,3.15,12,20.08,16.6s26.64,9.44,31.49,14.55a36.26,36.26,0,0,1,2-24.51c5.87-13.28-1-27.58-1-27.58s14.3,11,27.32,17.11S566.5,400,567.52,403.55c0,0-5.79-38,36.81-69.44,0,0,37.42,30.63,30.69,71.49,0,0,2.54-13.18,16.5-22.08s20.42-4.82,29.28-18.78c0,0,.6,18,3.53,25.16s11.78,25.57-6.6,43.61c0,0,9.53-9.19,21.11-14s41.53-20.42,45.1-28.42c0,0,8.43,44.93-15.57,79.23,0,0,49.79-10.54,69.53,7.28,0,0-18.38,15.79-24.51,24.64S749.9,514.87,738,514.36Z"/><path class="cls-13" d="M576.8,470.11s2.21-1.11.93-4.26-3.49-4.25-2.26-5,5.33,2,8.13,1,1.37.26,4.43,1.11,4.25-2.3,0-3.32-1.36-1,1.45-2.55.68-2.39,3.83-5.2,7.74-3.66,7.14-1.95-4,6.55-3.23,8.76,7.11-3.06,7.11-3.06,1.06,8.42-3.7,11S579.43,473,576.8,470.11Z"/><path class="cls-14" d="M581.9,482.53s2.9-2.89-1.53-5.1-7.15-5.62-3.57-7.32,14.8,1.19,20.59-2.9,8.17-10.21,5.79-16.51c0,0,7.83,9,12.93,11.58s20.09,7.49,16.52,15-3.92,5.95-3.92,5.95S586.84,491,581.9,482.53Z"/><path class="cls-15" d="M579.77,470.11s-2.21.42,1.54,3,6.89,6.89,9.27,5.61,2.22-2.13,9.45-3.66,16.42,1.87,22,2.56,8.26-3.75,6-9.45c0,0,7.2,4.29,4.64,9.11s-3.24,6.46-3.24,6.46-30.13,4.34-36.59,3.24a27.67,27.67,0,0,1-10.9-4.43s3.22-2.35-2.3-5.51S574.07,469.6,579.77,470.11Z"/><path class="cls-16" d="M574.24,514.36h64.34s-1.36-8.68,2.73-14.81,3.74-10.89,0-13.95-6.81-1.71-12.6-2.39-15-4.42-22.81-3.74-8.43,4.08-14.09,4.08-7-2.72-12.82,0-11.9,3.41-9.51,8.85,5.1,6.13,5.78,10.22S574.24,514.36,574.24,514.36Z"/><path class="cls-17" d="M585.44,482.53s-6.64,16.68-6.45,31.83H632.8s-1.71-10.46-1.37-17.49a37.53,37.53,0,0,1,3.59-13.4s-2.15,1.13-14.1-1.94-15.65-3-22.4,0S589.7,483.42,585.44,482.53Z"/><path class="cls-13" d="M631.52,470.36s-3.58-2.55-4-5.19.68-7.32-3.07-7.32-3.36,2.48-4.85,3.92-5.19-.09-7.83,1.1-5.44,6.3,1.11,6.81S631.52,470.36,631.52,470.36Z"/><path class="cls-18" d="M512.63,511.81h41.1a44.87,44.87,0,0,1-8.42-10.21c-4.34-6.9-13-10.21-19.66-4.73S521.56,509.26,512.63,511.81Z"/><path class="cls-19" d="M658.41,511.81h44.68a105.44,105.44,0,0,1-5.87-8.84c-2-3.67-11-10.57-20.68-7.76S664.28,509.26,658.41,511.81Z"/><path class="cls-20" d="M522.07,494.12s0,5.42-26-10.91-50-11.49-69.7-7.91c0,0,13.53,10,16.85,15.32s15.83,15.57,30.3,15.91c0,0,9.36-.68,6.8-6s-4.08,0-7.14-.51-6.47-1.36-7.32-.85-1.37.17-.51-3.23-2.73-2.89-3.75-.34-1.19,5.89-6.47,1.15-12.42-9.49-11.23-13.07,6-5.1,11.4-2.89,9,6.06,4.43,8.31-3.58,2.75-1.19,3.09,3.23-1.42,4.59-3.09,4.6-3.61,5.62,0-1.7,3.64.17,5,8.68,3.22,7.32,1-4.6-1.53-4.6-2.73a12.44,12.44,0,0,1,2.6-5.94c1.66-2.23,4.38-4.61,6.08-3.25s.35.54-.34,3.25.17,2.31,1,2.68,1.19-1.67,1.19-3.37-.68-4.26,2-1.54,1.53,3.69,2.72,4.91,1.53,3.43,3.58,3.6.68-4.74,0-5.6-3.07-2.57,0-3.25,4.25,1.71,5.61,6.13,2.05,7.66,1.54,9.7-.34,5.28,2,6.81,6.13,1.21,9.53-3.56S521.31,496.35,522.07,494.12Z"/><path class="cls-21" d="M696,495.5s0,5.42,26-10.91,50.05-11.49,69.71-7.92c0,0-13.54,10-16.85,15.32s-15.83,15.57-30.3,15.91c0,0-9.36-.68-6.81-5.95s4.08,0,7.15-.51,6.47-1.37,7.32-.85,1.36.17.51-3.24,2.72-2.89,3.74-.34,1.19,5.89,6.47,1.16,12.43-9.5,11.23-13.07-6-5.11-11.4-2.9-9,6.07-4.42,8.31,3.57,2.76,1.19,3.1-3.24-1.43-4.6-3.1-4.59-3.61-5.62,0,1.71,3.64-.17,5-8.68,3.21-7.32,1,4.6-1.53,4.6-2.72a12.46,12.46,0,0,0-2.6-5.95c-1.66-2.22-4.38-4.61-6.08-3.24s-.34.53.34,3.24-.17,2.31-1,2.68-1.19-1.67-1.19-3.37.68-4.26-2-1.53-1.53,3.68-2.72,4.9-1.53,3.44-3.57,3.61-.68-4.75,0-5.61,3.06-2.56,0-3.24-4.26,1.7-5.62,6.12-2,7.66-1.53,9.71.34,5.27-2,6.8-6.13,1.21-9.54-3.56S696.76,497.72,696,495.5Z"/><path class="cls-20" d="M489.31,492.32s1.53,2.33-.68,1.8-8.86-1.89-7.49.84,5.61,3.57,5.61,3.57a7.47,7.47,0,0,0-3.06,7.32,22.88,22.88,0,0,0,7.66-3.74c3.06-2.56,3.23-9,0-11.58S489.31,492.32,489.31,492.32Z"/><path class="cls-22" d="M470.58,402.53s3.58,5.28,21.62,10.21,50.55,27.75,61.53,59.75c0,0-2.13,20.77-24.59,18.21s-48.94-31.83-54.94-58S470.58,402.53,470.58,402.53Z"/><path class="cls-12" d="M487.33,449.06s3.51,12.37,11.34,14.07c0,0-2.56,4.59,6.81,9.36s15.66,3.57,19.4-4.34c0,0,.17-3.15-2-2.3s-1.36,4.26-6.13,4.51-14-1.79-14.13-7.4c0,0,3.92,3.57,6.3,3.4s2.89-.85,6.47-.34,7-6,8.68-5.92,2.21,8.69,2.38,11.65-5.27,5.89-5.27,5.89,7.14,5.23,9.53,4.72.34-9.43-1.19-16.63-2.73-13.84-7.41-9.75-6.89,6.71-11,4.12a13,13,0,0,0,5.11-6.33c1.36-4.09,0-13.28-1.19-10s-1.06,9.54-5.46,12.43-7.31.68-8.67,1.7S497.61,459.85,487.33,449.06Z"/><path class="cls-12" d="M509.55,450.7s-3.18,3.79-8.8,1-6.38-3.7-6-9.7.39-7,5.75-6.64,8.17-.51,6.64-2-5.11-1.92-7-3.83-4.08-4.21-2.17-4.21,4.73-.6,3.32-1-4.89-1.56-6.59-2.32-4.64-1.54-3.24,1,4.47,4.08,4.6,5.61-2.91,1.66-5,.26-4.35-.77-.9,1.91,3.53.77,3.55,3.45-2.62,2.3-5.32-.13-3.47-1.66-4.23,1.15-2.84,4.85-3.21,2.94.25-5.62,0-7.28-4.58-3.32-3.56-4.72,1.79-.38,4.21.13,2.68-1.23,4.09-2,1.79,1.51,2.17-1.43.64-5.74-2.3-5-2.17,6.77-3.32,4.85-5.61-9.19-2.93-10,8.42,1.66,9.19,2.94.51,2,1.53,2.3,11.74,1.4,13.66,4,.13,2.8,2.17,4.59,3.7,2.43,5.36,3.83-2,3.7-1.67,4.73,8.05,1.14,8.56,4.72,0,3.32-5.48.13-3.13-1.21-.71,2.55-2.36,3.11-4.15,4.24-3.44.23-2.93-1.43,1.4-5.87-.9-5.87-5.61.25-5.36,2.55,4.22,6.25,6.51,6.38S510.42,449.93,509.55,450.7Z"/><path class="cls-23" d="M491.05,438s-3-4-3.72,0-.62,5.49.53,5.62S492.45,442,491.05,438Z"/><path class="cls-24" d="M651.26,477.64s5.37-2.08,5.37,1.75,0,6-4.09,14.73a70.94,70.94,0,0,1,12.51-3.37c7.66-1.41,7.4-3.55,14.55-1.2s27.58.14,40.6-21,20.85-40.77,20.51-68.86c0,0-2.38,6.39-22,17.11S679.35,434.7,669.39,459c0,0-1.28,3.18,3.19,1.14s7.28-2.93,10.22-3.31,6.12-.51,4-1.15-4.72-3.11-5.1-4.94,1.27-5.53,3.19-7.44a29.62,29.62,0,0,0,4.72-5.88c1.92-2.93,4-3.44,7.41-5.74s10.85-5.7,12.51-7.38,7.4-1.3,9.19,2.4,1.66,12.51-4.47,13.66-8.43.89-10.34,1.66-4,2.68-3.45.76.26-5.23,3.58-5.74,11-.77,11.49-2.94.89-6.25-.9-7-6.64-.76-7.15,1.28-1.91,2.68-7.15,4.21-10.46,4-10.34,7.41-.38,5.87-3.06,6.38-3.06.76-2.43,2.74,1.15,3.39,3.2,3.64,3.32,1.36,5.49,5.15,6.76,7.19,13.78,6.26,8.68-16,5-18.43-.13,8.81-6,11.11-8.71.51-9.91-3.32,3.53-7.92,7.87-7.92,5.62-2.68,8-2.68,4.47-.38,4,5.11-1.41,10.07.38,12.12,5.87-3.44,7.66-3.57-2,7.15-6.13,10-.89,2.42-6.76,5.49-8.84,5.36-15,6.51-11.66,2.78-13.45-.85-.38-5.66,2.17-9.49,2.3-10.85-.77-8.94-5.49-.12-8.17,3.45-2.42,15.83-4.21,14.17-.25-13.19-2.3-12.72-5.1,5.44-6.25,8.38-.51.77-4.6,1.4S651.9,476.29,651.26,477.64Z"/><path class="cls-25" d="M603.88,339.38s-14,15.66-22.15,26.73-16.34,53.27,2.9,77.78c0,0-1-5.1,2.38-6.12s12.42,1.18,12.93-5.11.69-20.06.69-20.06,1.86,24.83,6.37,24.83,13.37-6.64,17.63-22.13-6.13-50-13.45-61.79S603.88,339.38,603.88,339.38Z"/><path class="cls-26" d="M541.22,436.26a32.91,32.91,0,0,0,9.45,2.53c4.34.25,22.47-11.7,27.32,7.94,0,0-5.36-6.57-7.41-3.68s3.83,8.25,0,10.8-6.13,1.28-10,2.55-3.1,14.73,8.32,17.88c0,0-7.56-.42-9.35,3.36s.26,11.45,0,14.76-2.8.51-6.89,0-6.38-2.21-4.43-3.91,5.88-4.77,6.3-8.09,1.11-7.57,1.11-7.57,4.34,1.11,4.34-.17-3.23-6.05-4.26-12.56S541.22,436.26,541.22,436.26Z"/><path class="cls-24" d="M671.78,435.66a32.8,32.8,0,0,1-9.44,2.53c-4.34.25-22.47-11.7-27.32,7.93,0,0,5.36-6.56,7.4-3.67s-3.83,8.25,0,10.8,6.13,1.28,10,2.55,3.1,14.73-8.32,17.88c0,0,7.55-.42,9.34,3.36s-.25,11.44,0,14.76,2.81.51,6.89,0,6.39-2.21,4.43-3.91-5.87-4.77-6.3-8.09-1.1-7.57-1.1-7.57-4.34,1.1-4.34-.17,3.23-6.05,4.25-12.56S671.78,435.66,671.78,435.66Z"/><path class="cls-12" d="M599.21,366.53a21.49,21.49,0,0,0-3.61,1.79c-2.42,1.4-4.64,1-3.79-.89s4.43-3.32,6.09-4.22,4-2.93,6.26,0-.77,6.9-1.79,9.07,1.16,3.83,2.62,4.85,3.89,2.81,5.42,0-.25-9.83,2-9.19,5.62,6.12,3.2,8.17-3.83,1.27-4.47,5.1.89,6.64,2,5.24,5-7.79,5.23-5.62,2.43,7.4,1,8.17-4.6-1-4.22.89,3.07.39,3.58,3.32,2.3,4.22-.51,4.6-8-4.34-9.48-3.32-2.78,7.53-1.12,9.19,3.7,4.09,6.51,4.72,6.51,5,3.58,6.51-6.83.52-9-3.06-6.1-6.51-6.86-4.21,2,6.36,1.89,8,.79,1.87,4,3.91,7.28,4.34,3.19,4.21-6.89-3.57-6.89-2.29-1.33,7.36-1.33,7.36l-2.2-16.19s-.56-4.45-2.47-3.56-5.31,2.68-6,2.94-5-1.53-3.73-5.36,2.3-3.83,4.6-4.09,2.94-1.4,2.94-4-1.54-6.51,0-7.66l1.53-1.14s-3.24-.17-5.71,5.47-5.14-.75-6.93-.75-5-1.28-5.23-3.58-.26-6.25,1.15-9.19,3.57-5.49,6.25-5,5.62,3.45,7.4,3.45.52-1.15,1.92-3.7,2.13-3.32,3.36-5.23S600.05,366.19,599.21,366.53Z"/><path class="cls-27" d="M590.84,381.85s-3.15-2.3-6.21,0-2.13,6.72,0,7.49,5.78,2,7.18-2.3S590.84,381.85,590.84,381.85Z"/><path class="cls-28" d="M606.84,385.09s-2-2.56-3.49-1.2-3.49,3.75-3.24,6.73,0,5.61,1.62,6.29,2.13.86,3.49-1.27,3-2.38,4.43-3.07,2.21-.76.42-3A53.76,53.76,0,0,1,606.84,385.09Z"/><path class="cls-12" d="M608,357a64.32,64.32,0,0,0-8.82-.51c-4.46.08-6.24,1.26-5.82,0s2-2,5.36-4.59,4.68-4.17,6.3-1.95,4,5.32,3.58,7.13S608,357,608,357Z"/><path class="cls-29" d="M530.5,382.45s6.77,2.38,1.26,6.29-12.84,20.26-6,33.54,24.34,13.61,33,8,11.24-20.09.85-30.56S530.5,382.45,530.5,382.45Z"/><ellipse class="cls-30" cx="544.3" cy="407.64" rx="8.74" ry="9.57"/><ellipse class="cls-31" cx="544.3" cy="407.64" rx="6.11" ry="6.69"/><path class="cls-32" d="M532.41,405.09s-1.53-4.35-3.57-.9-1.41,15.07,7.91,19.66,20.17,3.06,23.49-4.34-2-19.53-9.83-22.85,4.22,2.29,6.26,11-.26,14.42-8,15.19-11.08-1.92-13.07-4.85S532.41,405.09,532.41,405.09Z"/><path class="cls-33" d="M675.48,381.84s2.73,6.24-3.64,5.12-22.72,4.94-27.68,18.57,6.23,25.83,15.87,28,21.56-5.91,22.2-20.08S675.48,381.84,675.48,381.84Z"/><ellipse class="cls-34" cx="666.64" cy="408.31" rx="9.37" ry="8.26" transform="translate(-97.47 573.42) rotate(-43.68)"/><ellipse class="cls-35" cx="666.64" cy="408.31" rx="6.55" ry="5.77" transform="translate(-97.47 573.42) rotate(-43.68)"/><path class="cls-36" d="M660.7,398.46s2.07-4-1.7-3-11.59,9.22-8.76,18.7,11,15.85,18.39,13.11,12.49-14.62,9.77-22.18,1.13,4.44-3.69,11.7-10.39,9.59-16,4.79-5.86-8.86-5.09-12.21S660.7,398.46,660.7,398.46Z"/><path class="cls-12" d="M461.3,717.8a77.39,77.39,0,0,0-27.23,21.61c-12.26,15.32-21.79,15.1-21.79,15.1S441,776.15,486,761c0,0-27,31.07-20.08,82.65,0,0,3.14-12,20.08-16.6s26.64-9.44,31.49-14.55a36.29,36.29,0,0,0,2,24.51c5.88,13.28-1,27.57-1,27.57s14.3-11,27.32-17.1,19.41-15.32,20.43-18.9c0,0-5.79,38,36.8,69.45,0,0,37.43-30.64,30.7-71.49,0,0,2.54,13.18,16.5,22.08s20.42,4.82,29.27,18.77c0,0,.61-18,3.54-25.15s11.78-25.57-6.6-43.61c0,0,9.53,9.19,21.11,14S739.09,833,742.66,841c0,0,8.43-44.94-15.57-79.23,0,0,49.78,10.54,69.53-7.29,0,0-18.38-15.78-24.51-24.63s-23.49-12.6-35.41-12.08Z"/><path class="cls-13" d="M575.51,762.05s2.22,1.11.94,4.26-3.49,4.25-2.26,5,5.32-2.05,8.13-1,1.36-.26,4.43-1.11,4.25,2.3,0,3.32-1.36,1,1.44,2.55.68,2.39,3.83,5.19,7.75,3.66,7.15,2-4-6.55-3.23-8.76,7.1,3.06,7.1,3.06,1.07-8.43-3.7-11S578.15,759.16,575.51,762.05Z"/><path class="cls-14" d="M580.62,749.63s2.89,2.89-1.53,5.1-7.15,5.62-3.58,7.32,14.81-1.19,20.6,2.89,8.17,10.22,5.79,16.52c0,0,7.83-9,12.93-11.58s20.09-7.49,16.51-15-3.91-6-3.91-6S585.55,741.21,580.62,749.63Z"/><path class="cls-15" d="M578.49,762.05s-2.21-.42,1.53-3,6.9-6.89,9.28-5.61,2.21,2.12,9.45,3.65,16.42-1.87,22-2.55,8.26,3.75,6,9.45c0,0,7.2-4.29,4.63-9.11s-3.23-6.47-3.23-6.47-30.13-4.34-36.6-3.23a27.58,27.58,0,0,0-10.89,4.43s3.22,2.35-2.31,5.51S572.79,762.56,578.49,762.05Z"/><path class="cls-16" d="M573,717.8H637.3s-1.36,8.68,2.72,14.8,3.75,10.9,0,14-6.8,1.7-12.59,2.38-15,4.43-22.81,3.75-8.43-4.09-14.09-4.09-7,2.73-12.82,0-11.9-3.4-9.52-8.85,5.11-6.12,5.79-10.21S573,717.8,573,717.8Z"/><path class="cls-17" d="M584.16,749.63s-6.64-16.69-6.45-31.83h53.8s-1.7,10.46-1.36,17.48a37.45,37.45,0,0,0,3.59,13.4s-2.15-1.13-14.1,2-15.65,3-22.4,0S588.41,748.74,584.16,749.63Z"/><path class="cls-13" d="M630.24,761.8s-3.58,2.55-4,5.19.68,7.32-3.07,7.32-3.36-2.48-4.85-3.92-5.19.09-7.83-1.11-5.45-6.29,1.11-6.8S630.24,761.8,630.24,761.8Z"/><path class="cls-18" d="M511.34,720.35h41.11A44.72,44.72,0,0,0,544,730.56c-4.34,6.9-13,10.21-19.66,4.72S520.28,722.9,511.34,720.35Z"/><path class="cls-19" d="M657.13,720.35h44.68a103.64,103.64,0,0,0-5.87,8.84c-2,3.67-11,10.56-20.68,7.75S663,722.9,657.13,720.35Z"/><path class="cls-20" d="M520.79,738s0-5.42-26,10.91S444.7,760.43,425,756.86c0,0,13.54-10,16.86-15.32s15.83-15.57,30.29-15.91c0,0,9.37.68,6.81,6s-4.08,0-7.15.51-6.46,1.37-7.32.85-1.36-.17-.51,3.24-2.72,2.89-3.74.34-1.19-5.89-6.47-1.16-12.42,9.5-11.23,13.07,5.95,5.11,11.4,2.9,9-6.07,4.43-8.31-3.58-2.76-1.19-3.1,3.23,1.43,4.59,3.1,4.6,3.6,5.62,0-1.7-3.64.17-5,8.68-3.21,7.32-1-4.6,1.53-4.6,2.72a12.46,12.46,0,0,0,2.6,6c1.66,2.22,4.38,4.61,6.08,3.24s.34-.53-.34-3.24.17-2.31,1-2.68,1.19,1.67,1.19,3.37-.68,4.26,2.05,1.53,1.53-3.68,2.72-4.9,1.53-3.44,3.58-3.61.68,4.75,0,5.61-3.07,2.56,0,3.24,4.25-1.7,5.61-6.12,2-7.66,1.53-9.71-.34-5.27,2.05-6.8,6.12-1.21,9.53,3.56S520,735.81,520.79,738Z"/><path class="cls-21" d="M694.71,736.66s0-5.42,26,10.91,50,11.49,69.7,7.92c0,0-13.53-10-16.85-15.32s-15.83-15.58-30.29-15.92c0,0-9.37.68-6.81,6s4.08,0,7.15.51,6.46,1.36,7.32.85,1.36-.17.51,3.24,2.72,2.89,3.74.34,1.19-5.89,6.47-1.16,12.42,9.5,11.23,13.07-5.95,5.11-11.4,2.89-9-6.06-4.43-8.3,3.58-2.76,1.19-3.1-3.23,1.43-4.59,3.1-4.6,3.6-5.62,0,1.7-3.64-.17-5-8.68-3.22-7.32-1,4.6,1.53,4.6,2.72a12.5,12.5,0,0,1-2.6,6c-1.66,2.22-4.38,4.6-6.08,3.24s-.34-.53.34-3.24-.17-2.31-1-2.68-1.2,1.67-1.2,3.37.69,4.25-2,1.53-1.53-3.68-2.72-4.9-1.53-3.44-3.58-3.61-.68,4.75,0,5.61,3.07,2.56,0,3.24-4.25-1.7-5.61-6.13-2-7.66-1.53-9.7.34-5.28-2-6.81-6.12-1.2-9.53,3.57S695.48,734.43,694.71,736.66Z"/><path class="cls-20" d="M488,739.83s1.53-2.32-.69-1.8-8.85,1.89-7.49-.83,5.62-3.57,5.62-3.57a7.47,7.47,0,0,1-3.06-7.32,22.88,22.88,0,0,1,7.66,3.74c3.06,2.55,3.23,9,0,11.58S488,739.83,488,739.83Z"/><path class="cls-4" d="M469.3,829.63s3.57-5.28,21.62-10.22,50.55-27.74,61.53-59.74c0,0-2.13-20.77-24.6-18.21s-48.93,31.82-54.93,58S469.3,829.63,469.3,829.63Z"/><path class="cls-12" d="M486.05,783.1s3.51-12.37,11.34-14.07c0,0-2.56-4.6,6.8-9.36s15.66-3.58,19.41,4.34c0,0,.17,3.15-2,2.3s-1.37-4.26-6.13-4.51-14,1.78-14.13,7.4c0,0,3.92-3.57,6.3-3.4s2.89.85,6.47.34,7,6.05,8.68,5.92,2.21-8.69,2.38-11.65-5.28-5.9-5.28-5.9,7.15-5.23,9.54-4.71.34,9.43-1.2,16.63-2.72,13.83-7.4,9.75-6.89-6.71-11-4.12a13,13,0,0,1,5.11,6.33c1.36,4.09,0,13.28-1.19,10s-1.06-9.53-5.47-12.42-7.3-.68-8.66-1.7S496.33,772.31,486.05,783.1Z"/><path class="cls-12" d="M508.26,781.46s-3.17-3.79-8.79-1-6.38,3.7-6,9.7.38,7,5.75,6.64,8.17.51,6.63,2-5.1,1.91-7,3.83-4.08,4.21-2.17,4.21,4.73.59,3.32,1-4.89,1.56-6.59,2.32-4.64,1.53-3.24-1,4.47-4.09,4.6-5.62-2.91-1.66-5-.25-4.35.76-.91-1.92,3.54-.76,3.56-3.44-2.63-2.3-5.33.12-3.46,1.66-4.23-1.15-2.83-4.85-3.2-2.93.24,5.62,0,7.27-4.58,3.32-3.56,4.73,1.79.38,4.21-.13,2.68,1.23,4.09,2,1.78-1.51,2.17,1.43.64,5.74-2.3,5-2.17-6.77-3.32-4.85-5.62,9.19-2.94,9.95,8.43-1.66,9.2-2.93.51-2.05,1.53-2.3,11.74-1.41,13.66-4,.12-2.81,2.17-4.59,3.7-2.43,5.36-3.83-1.95-3.71-1.68-4.73,8.06-1.15,8.57-4.72,0-3.32-5.49-.13-3.12,1.21-.7-2.55-2.36-3.11-4.15-4.24-3.45-.23-2.93,1.43,1.4,5.87-.9,5.87-5.62-.25-5.36-2.55,4.21-6.26,6.51-6.38S509.14,782.22,508.26,781.46Z"/><path class="cls-23" d="M489.77,794.14s-3,4-3.72,0-.62-5.49.53-5.62S491.17,790.18,489.77,794.14Z"/><path class="cls-4" d="M650,754.51s5.36,2.09,5.36-1.74,0-6-4.08-14.74a71.41,71.41,0,0,0,12.51,3.38c7.66,1.41,7.4,3.55,14.55,1.2s27.58-.14,40.6,21,20.85,40.77,20.51,68.85c0,0-2.39-6.38-22-17.1s-39.32-17.87-49.28-42.13c0,0-1.28-3.18,3.19-1.14s7.28,2.93,10.21,3.31,6.13.51,4,1.15-4.72,3.11-5.11,4.94,1.28,5.53,3.2,7.44a30.18,30.18,0,0,1,4.72,5.87c1.91,2.94,4,3.45,7.4,5.75s10.85,5.7,12.51,7.38,7.41,1.3,9.2-2.4S719,793,712.92,791.84s-8.43-.9-10.34-1.66-4-2.68-3.45-.77.26,5.24,3.57,5.75,11,.76,11.49,2.93.9,6.26-.89,7-6.64.77-7.15-1.27-1.91-2.68-7.15-4.21-10.47-4-10.34-7.41-.38-5.87-3.06-6.38-3.07-.76-2.43-2.74,1.15-3.39,3.19-3.64,3.32-1.37,5.49-5.15,6.77-7.2,13.79-6.26,8.68,16,5,18.43-.13-8.81-6-11.11-8.71-.51-9.91,3.32,3.53,7.91,7.87,7.91,5.61,2.68,8,2.68,4.47.39,4-5.1-1.41-10.08.38-12.12,5.87,3.44,7.66,3.57-2-7.15-6.13-10-.89-2.43-6.76-5.49-8.84-5.36-15-6.51-11.67-2.78-13.45.84-.39,5.67,2.17,9.5,2.3,10.85-.77,8.93-5.49.13-8.17-3.44-2.42-15.83-4.21-14.17-.26,13.19-2.3,12.72-5.11-5.45-6.25-8.38-.51-.77-4.6-1.41S650.62,755.87,650,754.51Z"/><path class="cls-4" d="M602.6,892.77s-14-15.66-22.15-26.72-16.34-53.28,2.89-77.79c0,0-1,5.11,2.39,6.13s12.42-1.19,12.93,5.11.68,20.06.68,20.06,1.86-24.83,6.38-24.83,13.37,6.64,17.62,22.13-6.12,50-13.44,61.79S602.6,892.77,602.6,892.77Z"/><path class="cls-4" d="M539.94,795.89a32.94,32.94,0,0,1,9.45-2.52c4.34-.26,22.46,11.7,27.31-7.94,0,0-5.36,6.57-7.4,3.68s3.83-8.25,0-10.8-6.13-1.28-10-2.56-3.1-14.72,8.33-17.87c0,0-7.56.42-9.35-3.37s.26-11.44,0-14.76-2.81-.51-6.89,0S545,742,547,743.67s5.87,4.76,6.3,8.08,1.11,7.58,1.11,7.58,4.34-1.11,4.34.17-3.24,6-4.26,12.56S539.94,795.89,539.94,795.89Z"/><path class="cls-4" d="M670.5,796.5a32.91,32.91,0,0,0-9.45-2.53c-4.34-.25-22.46,11.7-27.31-7.94,0,0,5.36,6.57,7.4,3.68s-3.83-8.25,0-10.8,6.13-1.28,10-2.56,3.1-14.72-8.33-17.87c0,0,7.56.42,9.35-3.36s-.26-11.45,0-14.77,2.81-.51,6.89,0,6.38,2.22,4.43,3.92-5.87,4.77-6.3,8.08-1.11,7.58-1.11,7.58-4.34-1.11-4.34.17,3.24,6,4.26,12.56S670.5,796.5,670.5,796.5Z"/><path class="cls-12" d="M597.93,865.63a22.62,22.62,0,0,1-3.61-1.79c-2.42-1.41-4.64-1-3.79.89s4.43,3.32,6.09,4.21,4,2.94,6.26,0-.77-6.89-1.79-9.06,1.16-3.83,2.62-4.85,3.89-2.81,5.42,0-.26,9.83,2,9.19,5.62-6.13,3.19-8.17-3.83-1.28-4.46-5.11.89-6.63,2-5.23,5,7.79,5.23,5.62,2.43-7.41,1-8.17-4.59,1-4.21-.9,3.06-.38,3.58-3.32,2.29-4.21-.52-4.59-8,4.34-9.47,3.32-2.78-7.53-1.12-9.19,3.7-4.09,6.51-4.73,6.51-5,3.57-6.51-6.82-.51-9,3.07-6.1,6.51-6.87,4.21,2-6.36,1.9-8,.79-1.86,4-3.9,7.27-4.34,3.19-4.22-6.89,3.58-6.89,2.3-1.33-7.36-1.33-7.36l-2.21,16.19s-.55,4.45-2.47,3.55-5.3-2.68-6-2.93-5,1.53-3.73,5.36,2.3,3.83,4.6,4.09,2.93,1.4,2.93,4-1.53,6.51,0,7.66l1.54,1.15s-3.24.17-5.71-5.47-5.14.75-6.93.75-5,1.27-5.24,3.57-.25,6.26,1.15,9.19,3.58,5.49,6.26,5,5.62-3.44,7.4-3.44.51,1.14,1.92,3.7a60.65,60.65,0,0,0,3.36,5.23C599.68,862.82,598.76,866,597.93,865.63Z"/><path class="cls-27" d="M589.56,850.31a5.41,5.41,0,0,1-6.22,0c-3.06-2.3-2.12-6.73,0-7.49s5.79-2,7.19,2.29S589.56,850.31,589.56,850.31Z"/><path class="cls-28" d="M605.56,847.07s-2,2.56-3.49,1.19-3.49-3.74-3.24-6.72,0-5.62,1.62-6.3,2.13-.85,3.49,1.28,3,2.38,4.42,3.06,2.22.77.43,3A52,52,0,0,0,605.56,847.07Z"/><path class="cls-12" d="M606.75,875.16a66.22,66.22,0,0,1-8.82.51c-4.46-.09-6.25-1.26-5.82,0s2,2,5.36,4.58,4.68,4.17,6.3,2,4-5.32,3.57-7.13S606.75,875.16,606.75,875.16Z"/><path class="cls-4" d="M529.22,849.71s6.77-2.38,1.26-6.3-12.84-20.25-6-33.53,24.34-13.62,33-8,11.23,20.09.85,30.55S529.22,849.71,529.22,849.71Z"/><ellipse class="cls-30" cx="543.02" cy="824.52" rx="8.74" ry="9.57"/><ellipse class="cls-31" cx="543.02" cy="824.52" rx="6.11" ry="6.69"/><path class="cls-32" d="M531.13,827.07s-1.53,4.34-3.57.9-1.41-15.07,7.91-19.66,20.17-3.07,23.49,4.34-2.06,19.53-9.84,22.85,4.22-2.3,6.27-11-.26-14.43-8-15.19-11.07,1.91-13.07,4.85S531.13,827.07,531.13,827.07Z"/><path class="cls-4" d="M674.2,850.31s2.73-6.24-3.64-5.12-22.72-4.93-27.68-18.56,6.23-25.83,15.87-28,21.56,5.91,22.2,20.08S674.2,850.31,674.2,850.31Z"/><ellipse class="cls-34" cx="665.36" cy="823.85" rx="8.26" ry="9.37" transform="translate(-389.97 736.07) rotate(-46.32)"/><ellipse class="cls-35" cx="665.36" cy="823.85" rx="5.77" ry="6.55" transform="translate(-389.97 736.07) rotate(-46.32)"/><path class="cls-36" d="M659.41,833.7s2.08,4-1.7,3S646.13,827.51,649,818s11-15.85,18.4-13.11,12.49,14.62,9.77,22.17,1.12-4.43-3.69-11.7-10.39-9.58-16-4.78-5.87,8.86-5.09,12.21S659.41,833.7,659.41,833.7Z"/><circle class="cls-6" cx="242.18" cy="802.34" r="4.88"/><circle class="cls-6" cx="306.2" cy="894.34" r="4.88"/><circle class="cls-6" cx="405.78" cy="967.29" r="4.88"/><circle class="cls-6" cx="519.17" cy="1006.24" r="4.88"/><circle class="cls-6" cx="640.24" cy="1008.75" r="4.88"/><circle class="cls-6" cx="766.88" cy="968.36" r="4.88"/><circle class="cls-6" cx="871.82" cy="894.34" r="4.88"/><circle class="cls-6" cx="937.36" cy="798.91" r="4.88"/></svg>